<?xml version="1.0" encoding="UTF-8" standalone="no"?>
<!DOCTYPE svg PUBLIC "-//W3C//DTD SVG 1.1//EN"
 "http://www.w3.org/Graphics/SVG/1.1/DTD/svg11.dtd">
<!-- Generated by graphviz version 2.36.0 (20140111.2315)
 -->
<!-- Title: %3 Pages: 1 -->
<svg width="1316pt" height="223pt"
 viewBox="0.00 0.00 1316.00 223.00" xmlns="http://www.w3.org/2000/svg" xmlns:xlink="http://www.w3.org/1999/xlink">
<g id="graph0" class="graph" transform="scale(1 1) rotate(0) translate(4 219)">
<title>%3</title>
<polygon fill="white" stroke="none" points="-4,4 -4,-219 1312,-219 1312,4 -4,4"/>
<!-- 1995.Amauris_damocles -->
<g id="node1" class="node"><title>1995.Amauris_damocles</title>
<polygon fill="#ffffcc" stroke="black" points="1307.47,-51.5442 1307.47,-66.4558 1238.66,-77 1141.34,-77 1072.53,-66.4558 1072.53,-51.5442 1141.34,-41 1238.66,-41 1307.47,-51.5442"/>
<text text-anchor="middle" x="1190" y="-55.3" font-family="Helvetica,sans-Serif" font-size="14.00">1995.Amauris_damocles</text>
</g>
<!-- 1995.Amauris_damocles_subsp_makuyensis -->
<g id="node2" class="node"><title>1995.Amauris_damocles_subsp_makuyensis</title>
<polygon fill="#ffffcc" stroke="black" points="1034.03,-97.5442 1034.03,-112.456 914.51,-123 745.49,-123 625.974,-112.456 625.974,-97.5442 745.49,-87 914.51,-87 1034.03,-97.5442"/>
<text text-anchor="middle" x="830" y="-101.3" font-family="Helvetica,sans-Serif" font-size="14.00">1995.Amauris_damocles_subsp_makuyensis</text>
</g>
<!-- 1995.Amauris_damocles_subsp_makuyensis&#45;&gt;1995.Amauris_damocles -->
<g id="edge1" class="edge"><title>1995.Amauris_damocles_subsp_makuyensis&#45;&gt;1995.Amauris_damocles</title>
<path fill="none" stroke="#000000" d="M964.595,-91.3997C987.759,-88.7909 1011.59,-85.9472 1034,-83 1055.09,-80.2255 1077.75,-76.9092 1099.05,-73.6402"/>
<polygon fill="#000000" stroke="#000000" points="1099.7,-77.0802 1109.05,-72.093 1098.63,-70.1624 1099.7,-77.0802"/>
</g>
<!-- 1995.Amauris_damocles_subsp_damocles -->
<g id="node3" class="node"><title>1995.Amauris_damocles_subsp_damocles</title>
<polygon fill="#ffffcc" stroke="black" points="1024.33,-51.5442 1024.33,-66.4558 910.493,-77 749.507,-77 635.672,-66.4558 635.672,-51.5442 749.507,-41 910.493,-41 1024.33,-51.5442"/>
<text text-anchor="middle" x="830" y="-55.3" font-family="Helvetica,sans-Serif" font-size="14.00">1995.Amauris_damocles_subsp_damocles</text>
</g>
<!-- 1995.Amauris_damocles_subsp_damocles&#45;&gt;1995.Amauris_damocles -->
<g id="edge3" class="edge"><title>1995.Amauris_damocles_subsp_damocles&#45;&gt;1995.Amauris_damocles</title>
<path fill="none" stroke="#000000" d="M1024.41,-59C1037.16,-59 1049.82,-59 1062.12,-59"/>
<polygon fill="#000000" stroke="#000000" points="1062.36,-62.5001 1072.36,-59 1062.36,-55.5001 1062.36,-62.5001"/>
</g>
<!-- 1995.Amauris_damocles_subsp_hyalites -->
<g id="node4" class="node"><title>1995.Amauris_damocles_subsp_hyalites</title>
<polygon fill="#ffffcc" stroke="black" points="1015.04,-10.5442 1015.04,-25.4558 906.645,-36 753.355,-36 644.963,-25.4558 644.963,-10.5442 753.355,-3.55271e-15 906.645,-0 1015.04,-10.5442"/>
<text text-anchor="middle" x="830" y="-14.3" font-family="Helvetica,sans-Serif" font-size="14.00">1995.Amauris_damocles_subsp_hyalites</text>
</g>
<!-- 1995.Amauris_damocles_subsp_hyalites&#45;&gt;1995.Amauris_damocles -->
<g id="edge2" class="edge"><title>1995.Amauris_damocles_subsp_hyalites&#45;&gt;1995.Amauris_damocles</title>
<path fill="none" stroke="#000000" d="M955.834,-31.2502C981.683,-34.072 1008.73,-37.0824 1034,-40 1051.22,-41.9888 1069.51,-44.1695 1087.26,-46.3223"/>
<polygon fill="#000000" stroke="#000000" points="1087.29,-49.8513 1097.64,-47.5849 1088.14,-42.9026 1087.29,-49.8513"/>
</g>
<!-- 1997.Amauris_hyalites -->
<g id="node5" class="node"><title>1997.Amauris_hyalites</title>
<polygon fill="#ccffcc" stroke="black" points="256,-146 102,-146 102,-110 256,-110 256,-146"/>
<text text-anchor="middle" x="179" y="-124.3" font-family="Helvetica,sans-Serif" font-size="14.00">1997.Amauris_hyalites</text>
</g>
<!-- 1997.Amauris_hyalites_subsp_hyalites -->
<g id="node6" class="node"><title>1997.Amauris_hyalites_subsp_hyalites</title>
<polygon fill="#ccffcc" stroke="black" points="558.5,-166 307.5,-166 307.5,-130 558.5,-130 558.5,-166"/>
<text text-anchor="middle" x="433" y="-144.3" font-family="Helvetica,sans-Serif" font-size="14.00">1997.Amauris_hyalites_subsp_hyalites</text>
</g>
<!-- 1997.Amauris_hyalites&#45;&gt;1997.Amauris_hyalites_subsp_hyalites -->
<g id="edge5" class="edge"><title>1997.Amauris_hyalites&#45;&gt;1997.Amauris_hyalites_subsp_hyalites</title>
<path fill="none" stroke="#000000" d="M266.627,-134.875C279.697,-135.912 293.396,-137 307.077,-138.085"/>
<polygon fill="#000000" stroke="#000000" points="266.538,-131.357 256.292,-134.055 265.984,-138.335 266.538,-131.357"/>
</g>
<!-- 1997.Amauris_hyalites_subsp_makuyensis -->
<g id="node7" class="node"><title>1997.Amauris_hyalites_subsp_makuyensis</title>
<polygon fill="#ccffcc" stroke="black" points="571.5,-125 294.5,-125 294.5,-89 571.5,-89 571.5,-125"/>
<text text-anchor="middle" x="433" y="-103.3" font-family="Helvetica,sans-Serif" font-size="14.00">1997.Amauris_hyalites_subsp_makuyensis</text>
</g>
<!-- 1997.Amauris_hyalites&#45;&gt;1997.Amauris_hyalites_subsp_makuyensis -->
<g id="edge4" class="edge"><title>1997.Amauris_hyalites&#45;&gt;1997.Amauris_hyalites_subsp_makuyensis</title>
<path fill="none" stroke="#000000" d="M266.428,-120.798C275.531,-120.039 284.94,-119.255 294.438,-118.463"/>
<polygon fill="#000000" stroke="#000000" points="265.967,-117.324 256.292,-121.642 266.548,-124.3 265.967,-117.324"/>
</g>
<!-- 1997.Amauris_hyalites_subsp_makuyensis&#45;&gt;1995.Amauris_damocles_subsp_makuyensis -->
<g id="edge7" class="edge"><title>1997.Amauris_hyalites_subsp_makuyensis&#45;&gt;1995.Amauris_damocles_subsp_makuyensis</title>
<path fill="none" stroke="#aa00ff" stroke-dasharray="5,2" d="M571.597,-106.303C589.187,-106.214 607.476,-106.122 625.831,-106.029"/>
<text text-anchor="middle" x="599" y="-109.8" font-family="Times,serif" font-size="14.00">==</text>
</g>
<!-- 1997.Amauris_damocles -->
<g id="node8" class="node"><title>1997.Amauris_damocles</title>
<polygon fill="#ccffcc" stroke="black" points="516.5,-74 349.5,-74 349.5,-38 516.5,-38 516.5,-74"/>
<text text-anchor="middle" x="433" y="-52.3" font-family="Helvetica,sans-Serif" font-size="14.00">1997.Amauris_damocles</text>
</g>
<!-- 1997.Amauris_damocles&#45;&gt;1995.Amauris_damocles_subsp_damocles -->
<g id="edge6" class="edge"><title>1997.Amauris_damocles&#45;&gt;1995.Amauris_damocles_subsp_damocles</title>
<path fill="none" stroke="#aa00ff" stroke-dasharray="5,2" d="M516.805,-56.6289C551.643,-56.8935 593.768,-57.2134 635.645,-57.5315"/>
<text text-anchor="middle" x="599" y="-61.8" font-family="Times,serif" font-size="14.00">==</text>
</g>
<!-- Legend -->
<g id="node9" class="node"><title>Legend</title>
<polygon fill="white" stroke="black" points="84,-216 7.10543e-15,-216 7.10543e-15,-40 84,-40 84,-216"/>
<polygon fill="none" stroke="black" points="0,-190 0,-216 84,-216 84,-190 0,-190"/>
<text text-anchor="start" x="17.5" y="-199.3" font-family="Arial Black" font-size="14.00"> Nodes</text>
<polygon fill="#ffffcc" stroke="none" points="0,-165 0,-190 66,-190 66,-165 0,-165"/>
<polygon fill="none" stroke="black" points="0,-165 0,-190 66,-190 66,-165 0,-165"/>
<text text-anchor="start" x="17.5" y="-173.8" font-family="Helvetica,sans-Serif" font-size="14.00">1995</text>
<polygon fill="none" stroke="black" points="66,-165 66,-190 84,-190 84,-165 66,-165"/>
<text text-anchor="start" x="71" y="-173.8" font-family="Helvetica,sans-Serif" font-size="14.00">4</text>
<polygon fill="#ccffcc" stroke="none" points="0,-140 0,-165 66,-165 66,-140 0,-140"/>
<polygon fill="none" stroke="black" points="0,-140 0,-165 66,-165 66,-140 0,-140"/>
<text text-anchor="start" x="17.5" y="-148.8" font-family="Helvetica,sans-Serif" font-size="14.00">1997</text>
<polygon fill="none" stroke="black" points="66,-140 66,-165 84,-165 84,-140 66,-140"/>
<text text-anchor="start" x="71" y="-148.8" font-family="Helvetica,sans-Serif" font-size="14.00">4</text>
<polygon fill="none" stroke="black" points="0,-115 0,-140 84,-140 84,-115 0,-115"/>
<text text-anchor="start" x="16" y="-123.8" font-family="Arial Black" font-size="14.00"> Edges </text>
<polygon fill="none" stroke="black" points="0,-90 0,-115 66,-115 66,-90 0,-90"/>
<text text-anchor="start" x="5.5" y="-98.8" font-family="Helvetica,sans-Serif" font-size="14.00" fill="#000000">isa_1995</text>
<polygon fill="none" stroke="black" points="66,-90 66,-115 84,-115 84,-90 66,-90"/>
<text text-anchor="start" x="71" y="-98.8" font-family="Helvetica,sans-Serif" font-size="14.00">3</text>
<polygon fill="none" stroke="black" points="0,-65 0,-90 66,-90 66,-65 0,-65"/>
<text text-anchor="start" x="5.5" y="-73.8" font-family="Helvetica,sans-Serif" font-size="14.00" fill="#000000">isa_1997</text>
<polygon fill="none" stroke="black" points="66,-65 66,-90 84,-90 84,-65 66,-65"/>
<text text-anchor="start" x="71" y="-73.8" font-family="Helvetica,sans-Serif" font-size="14.00">2</text>
<polygon fill="none" stroke="black" points="0,-40 0,-65 66,-65 66,-40 0,-40"/>
<text text-anchor="start" x="22" y="-48.8" font-family="Helvetica,sans-Serif" font-size="14.00" fill="#aa00ff">Art.</text>
<polygon fill="none" stroke="black" points="66,-40 66,-65 84,-65 84,-40 66,-40"/>
<text text-anchor="start" x="71" y="-48.8" font-family="Helvetica,sans-Serif" font-size="14.00">2</text>
</g>
</g>
</svg>
