<?xml version="1.0" encoding="UTF-8" standalone="no"?>
<!DOCTYPE svg PUBLIC "-//W3C//DTD SVG 1.1//EN"
 "http://www.w3.org/Graphics/SVG/1.1/DTD/svg11.dtd">
<!-- Generated by graphviz version 2.36.0 (20140111.2315)
 -->
<!-- Title: %3 Pages: 1 -->
<svg width="766pt" height="456pt"
 viewBox="0.00 0.00 766.00 456.00" xmlns="http://www.w3.org/2000/svg" xmlns:xlink="http://www.w3.org/1999/xlink">
<g id="graph0" class="graph" transform="scale(1 1) rotate(0) translate(4 452)">
<title>%3</title>
<polygon fill="white" stroke="none" points="-4,4 -4,-452 762,-452 762,4 -4,4"/>
<!-- 1.A -->
<g id="node1" class="node"><title>1.A</title>
<polygon fill="#ccffcc" stroke="black" points="136,-250 82,-250 82,-214 136,-214 136,-250"/>
<text text-anchor="middle" x="109" y="-228.3" font-family="Helvetica,sans-Serif" font-size="14.00">1.A</text>
</g>
<!-- 1.I -->
<g id="node2" class="node"><title>1.I</title>
<polygon fill="#ccffcc" stroke="black" points="228,-326 174,-326 174,-290 228,-290 228,-326"/>
<text text-anchor="middle" x="201" y="-304.3" font-family="Helvetica,sans-Serif" font-size="14.00">1.I</text>
</g>
<!-- 1.A&#45;&gt;1.I -->
<g id="edge3" class="edge"><title>1.A&#45;&gt;1.I</title>
<path fill="none" stroke="#000000" d="M128.918,-258.291C136.113,-267.152 144.809,-276.647 154,-284 159.909,-288.727 166.892,-292.935 173.609,-296.457"/>
<polygon fill="#000000" stroke="#000000" points="131.675,-256.135 122.76,-250.411 126.16,-260.446 131.675,-256.135"/>
</g>
<!-- 1.F -->
<g id="node5" class="node"><title>1.F</title>
<polygon fill="#ccffcc" stroke="black" points="320,-347 266,-347 266,-311 320,-311 320,-347"/>
<text text-anchor="middle" x="293" y="-325.3" font-family="Helvetica,sans-Serif" font-size="14.00">1.F</text>
</g>
<!-- 1.A&#45;&gt;1.F -->
<g id="edge5" class="edge"><title>1.A&#45;&gt;1.F</title>
<path fill="none" stroke="#000000" d="M145.417,-245.465C169.325,-255.068 201.271,-268.91 228,-284 242.075,-291.946 256.894,-302.229 268.724,-310.958"/>
<polygon fill="#000000" stroke="#000000" points="146.614,-242.175 136.028,-241.745 144.036,-248.683 146.614,-242.175"/>
</g>
<!-- 1.B -->
<g id="node7" class="node"><title>1.B</title>
<polygon fill="#ccffcc" stroke="black" points="228,-212 174,-212 174,-176 228,-176 228,-212"/>
<text text-anchor="middle" x="201" y="-190.3" font-family="Helvetica,sans-Serif" font-size="14.00">1.B</text>
</g>
<!-- 1.A&#45;&gt;1.B -->
<g id="edge4" class="edge"><title>1.A&#45;&gt;1.B</title>
<path fill="none" stroke="#000000" d="M145.245,-217.119C154.726,-213.116 164.815,-208.856 173.715,-205.098"/>
<polygon fill="#000000" stroke="#000000" points="143.883,-213.895 136.032,-221.009 146.606,-220.343 143.883,-213.895"/>
</g>
<!-- 2.A -->
<g id="node14" class="node"><title>2.A</title>
<polygon fill="#ffffcc" stroke="black" points="758,-224.544 758,-239.456 742.184,-250 719.816,-250 704,-239.456 704,-224.544 719.816,-214 742.184,-214 758,-224.544"/>
<text text-anchor="middle" x="731" y="-228.3" font-family="Helvetica,sans-Serif" font-size="14.00">2.A</text>
</g>
<!-- 1.A&#45;&gt;2.A -->
<g id="edge22" class="edge"><title>1.A&#45;&gt;2.A</title>
<path fill="none" stroke="#aa00ff" stroke-dasharray="5,2" d="M113.004,-213.795C122.537,-159.104 154.206,-0 200,-0 200,-0 200,-0 640,-0 685.794,-0 717.463,-159.104 726.996,-213.795"/>
<text text-anchor="middle" x="401" y="-3.8" font-family="Times,serif" font-size="14.00">==</text>
</g>
<!-- 1.D -->
<g id="node3" class="node"><title>1.D</title>
<polygon fill="#ccffcc" stroke="black" points="320,-170 266,-170 266,-134 320,-134 320,-170"/>
<text text-anchor="middle" x="293" y="-148.3" font-family="Helvetica,sans-Serif" font-size="14.00">1.D</text>
</g>
<!-- 2C+ -->
<g id="node18" class="node"><title>2C+</title>
<ellipse fill="#ffffff" stroke="black" cx="401" cy="-151" rx="18" ry="18"/>
<text text-anchor="middle" x="401" y="-147.3" font-family="Helvetica,sans-Serif" font-size="14.00">+</text>
</g>
<!-- 1.D&#45;&gt;2C+ -->
<g id="edge21" class="edge"><title>1.D&#45;&gt;2C+</title>
<path fill="none" stroke="#aa00ff" stroke-dasharray="5,2" d="M320.202,-151.753C339.698,-151.569 365.759,-151.323 382.709,-151.163"/>
<text text-anchor="middle" x="347" y="-155.8" font-family="Times,serif" font-size="14.00">in</text>
</g>
<!-- 1.E -->
<g id="node4" class="node"><title>1.E</title>
<polygon fill="#ccffcc" stroke="black" points="320,-94 266,-94 266,-58 320,-58 320,-94"/>
<text text-anchor="middle" x="293" y="-72.3" font-family="Helvetica,sans-Serif" font-size="14.00">1.E</text>
</g>
<!-- 2.E -->
<g id="node17" class="node"><title>2.E</title>
<polygon fill="#ffffcc" stroke="black" points="500,-38.5442 500,-53.4558 484.184,-64 461.816,-64 446,-53.4558 446,-38.5442 461.816,-28 484.184,-28 500,-38.5442"/>
<text text-anchor="middle" x="473" y="-42.3" font-family="Helvetica,sans-Serif" font-size="14.00">2.E</text>
</g>
<!-- 1.E&#45;&gt;2.E -->
<g id="edge25" class="edge"><title>1.E&#45;&gt;2.E</title>
<path fill="none" stroke="#aa00ff" stroke-dasharray="5,2" d="M320.265,-71.5734C354.015,-65.8851 412.256,-56.0693 445.918,-50.3959"/>
<text text-anchor="middle" x="347" y="-72.8" font-family="Times,serif" font-size="14.00">==</text>
</g>
<!-- 1.G -->
<g id="node6" class="node"><title>1.G</title>
<polygon fill="#ccffcc" stroke="black" points="428,-393 374,-393 374,-357 428,-357 428,-393"/>
<text text-anchor="middle" x="401" y="-371.3" font-family="Helvetica,sans-Serif" font-size="14.00">1.G</text>
</g>
<!-- 1.F&#45;&gt;1.G -->
<g id="edge8" class="edge"><title>1.F&#45;&gt;1.G</title>
<path fill="none" stroke="#000000" d="M329.385,-344.356C343.874,-350.643 360.344,-357.791 373.732,-363.601"/>
<polygon fill="#000000" stroke="#000000" points="330.769,-341.141 320.202,-340.371 327.982,-347.562 330.769,-341.141"/>
</g>
<!-- 1.H -->
<g id="node9" class="node"><title>1.H</title>
<polygon fill="#ccffcc" stroke="black" points="428,-347 374,-347 374,-311 428,-311 428,-347"/>
<text text-anchor="middle" x="401" y="-325.3" font-family="Helvetica,sans-Serif" font-size="14.00">1.H</text>
</g>
<!-- 1.F&#45;&gt;1.H -->
<g id="edge1" class="edge"><title>1.F&#45;&gt;1.H</title>
<path fill="none" stroke="#000000" d="M330.215,-329C344.5,-329 360.599,-329 373.732,-329"/>
<polygon fill="#000000" stroke="#000000" points="330.202,-325.5 320.202,-329 330.202,-332.5 330.202,-325.5"/>
</g>
<!-- 2.B -->
<g id="node13" class="node"><title>2.B</title>
<polygon fill="#ffffcc" stroke="black" points="666,-224.544 666,-239.456 650.184,-250 627.816,-250 612,-239.456 612,-224.544 627.816,-214 650.184,-214 666,-224.544"/>
<text text-anchor="middle" x="639" y="-228.3" font-family="Helvetica,sans-Serif" font-size="14.00">2.B</text>
</g>
<!-- 1.F&#45;&gt;2.B -->
<g id="edge17" class="edge"><title>1.F&#45;&gt;2.B</title>
<path fill="none" stroke="#aa00ff" stroke-dasharray="5,2" d="M320.142,-319.615C335.694,-314.174 355.866,-307.36 374,-302 470.758,-273.403 496.996,-273.752 594,-246 600.166,-244.236 606.775,-242.207 612.948,-240.252"/>
<text text-anchor="middle" x="473" y="-285.8" font-family="Times,serif" font-size="14.00">&gt;&lt;</text>
</g>
<!-- 2.F -->
<g id="node16" class="node"><title>2.F</title>
<polygon fill="#ffffcc" stroke="black" points="666,-366.544 666,-381.456 650.184,-392 627.816,-392 612,-381.456 612,-366.544 627.816,-356 650.184,-356 666,-366.544"/>
<text text-anchor="middle" x="639" y="-370.3" font-family="Helvetica,sans-Serif" font-size="14.00">2.F</text>
</g>
<!-- 1.F&#45;&gt;2.F -->
<g id="edge18" class="edge"><title>1.F&#45;&gt;2.F</title>
<path fill="none" stroke="#aa00ff" stroke-dasharray="5,2" d="M308.005,-347.229C322.469,-364.566 346.724,-389.762 374,-402 455.328,-438.488 488.733,-442.984 574,-417 592.311,-411.42 610.135,-398.657 622.302,-388.476"/>
<text text-anchor="middle" x="473" y="-436.8" font-family="Times,serif" font-size="14.00">&gt;&lt;</text>
</g>
<!-- 2.G -->
<g id="node15" class="node"><title>2.G</title>
<polygon fill="#ffffcc" stroke="black" points="573.373,-388.544 573.373,-403.456 557.338,-414 534.662,-414 518.627,-403.456 518.627,-388.544 534.662,-378 557.338,-378 573.373,-388.544"/>
<text text-anchor="middle" x="546" y="-392.3" font-family="Helvetica,sans-Serif" font-size="14.00">2.G</text>
</g>
<!-- 1.G&#45;&gt;2.G -->
<g id="edge20" class="edge"><title>1.G&#45;&gt;2.G</title>
<path fill="none" stroke="#aa00ff" stroke-dasharray="5,2" d="M428.228,-378.852C453.869,-382.617 492.705,-388.32 518.454,-392.102"/>
<text text-anchor="middle" x="473" y="-392.8" font-family="Times,serif" font-size="14.00">==</text>
</g>
<!-- 1.B&#45;&gt;1.D -->
<g id="edge7" class="edge"><title>1.B&#45;&gt;1.D</title>
<path fill="none" stroke="#000000" d="M237.245,-177.553C246.726,-173.128 256.815,-168.42 265.715,-164.266"/>
<polygon fill="#000000" stroke="#000000" points="235.613,-174.451 228.032,-181.852 238.574,-180.795 235.613,-174.451"/>
</g>
<!-- 1.B&#45;&gt;1.E -->
<g id="edge6" class="edge"><title>1.B&#45;&gt;1.E</title>
<path fill="none" stroke="#000000" d="M222.042,-167.723C239.143,-145.301 263.28,-113.656 278.267,-94.0059"/>
<polygon fill="#000000" stroke="#000000" points="219.147,-165.747 215.865,-175.821 224.713,-169.992 219.147,-165.747"/>
</g>
<!-- 1.C -->
<g id="node8" class="node"><title>1.C</title>
<polygon fill="#ccffcc" stroke="black" points="573,-190 519,-190 519,-154 573,-154 573,-190"/>
<text text-anchor="middle" x="546" y="-168.3" font-family="Helvetica,sans-Serif" font-size="14.00">1.C</text>
</g>
<!-- 1.B&#45;&gt;1.C -->
<g id="edge2" class="edge"><title>1.B&#45;&gt;1.C</title>
<path fill="none" stroke="#000000" d="M238.586,-193.797C294.913,-193.144 406.19,-190.498 500,-180 506.151,-179.312 512.731,-178.3 518.908,-177.226"/>
<polygon fill="#000000" stroke="#000000" points="238.364,-190.299 228.4,-193.901 238.435,-197.299 238.364,-190.299"/>
</g>
<!-- 1.B&#45;&gt;2.B -->
<g id="edge16" class="edge"><title>1.B&#45;&gt;2.B</title>
<path fill="none" stroke="#aa00ff" stroke-dasharray="5,2" d="M228.353,-211.665C245.679,-221.589 269.273,-232 292,-232 292,-232 292,-232 547,-232 568.802,-232 593.542,-232 611.718,-232"/>
<text text-anchor="middle" x="401" y="-235.8" font-family="Times,serif" font-size="14.00">&lt;</text>
</g>
<!-- 2.H -->
<g id="node11" class="node"><title>2.H</title>
<polygon fill="#ffffcc" stroke="black" points="573,-306.544 573,-321.456 557.184,-332 534.816,-332 519,-321.456 519,-306.544 534.816,-296 557.184,-296 573,-306.544"/>
<text text-anchor="middle" x="546" y="-310.3" font-family="Helvetica,sans-Serif" font-size="14.00">2.H</text>
</g>
<!-- 1.H&#45;&gt;2.H -->
<g id="edge19" class="edge"><title>1.H&#45;&gt;2.H</title>
<path fill="none" stroke="#aa00ff" stroke-dasharray="5,2" d="M428.228,-326.249C454.03,-323.542 493.194,-319.434 518.938,-316.734"/>
<text text-anchor="middle" x="473" y="-327.8" font-family="Times,serif" font-size="14.00">==</text>
</g>
<!-- 2.I -->
<g id="node10" class="node"><title>2.I</title>
<polygon fill="#ffffcc" stroke="black" points="573,-347.544 573,-362.456 557.184,-373 534.816,-373 519,-362.456 519,-347.544 534.816,-337 557.184,-337 573,-347.544"/>
<text text-anchor="middle" x="546" y="-351.3" font-family="Helvetica,sans-Serif" font-size="14.00">2.I</text>
</g>
<!-- 2.I&#45;&gt;2.F -->
<g id="edge15" class="edge"><title>2.I&#45;&gt;2.F</title>
<path fill="none" stroke="#000000" d="M573.321,-360.496C582.187,-362.347 592.243,-364.446 601.738,-366.429"/>
<polygon fill="#000000" stroke="#000000" points="601.234,-369.899 611.738,-368.517 602.665,-363.047 601.234,-369.899"/>
</g>
<!-- 2.H&#45;&gt;2.B -->
<g id="edge12" class="edge"><title>2.H&#45;&gt;2.B</title>
<path fill="none" stroke="#000000" d="M571.298,-305.396C579.038,-301.958 587.318,-297.492 594,-292 605.182,-282.81 615.004,-270.171 622.515,-258.862"/>
<polygon fill="#000000" stroke="#000000" points="625.628,-260.489 628.025,-250.169 619.716,-256.742 625.628,-260.489"/>
</g>
<!-- 2.C -->
<g id="node12" class="node"><title>2.C</title>
<polygon fill="#ffffcc" stroke="black" points="573,-107.544 573,-122.456 557.184,-133 534.816,-133 519,-122.456 519,-107.544 534.816,-97 557.184,-97 573,-107.544"/>
<text text-anchor="middle" x="546" y="-111.3" font-family="Helvetica,sans-Serif" font-size="14.00">2.C</text>
</g>
<!-- 2.C&#45;&gt;2.B -->
<g id="edge11" class="edge"><title>2.C&#45;&gt;2.B</title>
<path fill="none" stroke="#000000" d="M561.311,-130.316C565.498,-134.951 570.017,-140.11 574,-145 590.336,-165.056 607.651,-188.761 620.146,-206.357"/>
<polygon fill="#000000" stroke="#000000" points="617.584,-208.798 626.21,-214.951 623.304,-204.762 617.584,-208.798"/>
</g>
<!-- 2.B&#45;&gt;2.A -->
<g id="edge13" class="edge"><title>2.B&#45;&gt;2.A</title>
<path fill="none" stroke="#000000" d="M666.032,-232C674.632,-232 684.363,-232 693.593,-232"/>
<polygon fill="#000000" stroke="#000000" points="693.715,-235.5 703.715,-232 693.715,-228.5 693.715,-235.5"/>
</g>
<!-- 2.G&#45;&gt;2.F -->
<g id="edge14" class="edge"><title>2.G&#45;&gt;2.F</title>
<path fill="none" stroke="#000000" d="M573.811,-389.518C582.589,-387.396 592.491,-385.002 601.842,-382.741"/>
<polygon fill="#000000" stroke="#000000" points="602.797,-386.112 611.694,-380.36 601.152,-379.308 602.797,-386.112"/>
</g>
<!-- 2.F&#45;&gt;2.A -->
<g id="edge9" class="edge"><title>2.F&#45;&gt;2.A</title>
<path fill="none" stroke="#000000" d="M651.217,-356.303C666.864,-331.615 695.353,-286.665 713.446,-258.119"/>
<polygon fill="#000000" stroke="#000000" points="716.528,-259.794 718.925,-249.474 710.615,-256.047 716.528,-259.794"/>
</g>
<!-- 2.E&#45;&gt;2.B -->
<g id="edge10" class="edge"><title>2.E&#45;&gt;2.B</title>
<path fill="none" stroke="#000000" d="M500.418,-51.3588C522.547,-57.0654 553.688,-68.1025 574,-88 606.658,-119.993 623.951,-171.577 632.022,-203.544"/>
<polygon fill="#000000" stroke="#000000" points="628.69,-204.66 634.415,-213.575 635.499,-203.036 628.69,-204.66"/>
</g>
<!-- 2C+&#45;&gt;1.C -->
<g id="edge24" class="edge"><title>2C+&#45;&gt;1.C</title>
<path fill="none" stroke="#aa00ff" stroke-dasharray="5,2" d="M429.09,-154.778C448.773,-157.545 476.048,-161.426 500,-165 506.1,-165.91 512.66,-166.915 518.834,-167.873"/>
<polygon fill="#aa00ff" stroke="#aa00ff" points="429.394,-151.286 419.005,-153.364 428.423,-158.219 429.394,-151.286"/>
<text text-anchor="middle" x="473" y="-168.8" font-family="Times,serif" font-size="14.00">in</text>
</g>
<!-- 2C+&#45;&gt;2.C -->
<g id="edge23" class="edge"><title>2C+&#45;&gt;2.C</title>
<path fill="none" stroke="#aa00ff" stroke-dasharray="5,2" d="M418.685,-146.33C426.897,-144.062 436.952,-141.33 446,-139 470.662,-132.649 498.904,-125.849 518.894,-121.115"/>
<text text-anchor="middle" x="473" y="-142.8" font-family="Times,serif" font-size="14.00">out</text>
</g>
<!-- Legend -->
<g id="node19" class="node"><title>Legend</title>
<polygon fill="white" stroke="black" points="63.5,-332.5 0.5,-332.5 0.5,-131.5 63.5,-131.5 63.5,-332.5"/>
<polygon fill="none" stroke="black" points="1,-306 1,-332 64,-332 64,-306 1,-306"/>
<text text-anchor="start" x="8" y="-315.3" font-family="Arial Black" font-size="14.00"> Nodes</text>
<polygon fill="#ccffcc" stroke="none" points="1,-281 1,-306 45,-306 45,-281 1,-281"/>
<polygon fill="none" stroke="black" points="1,-281 1,-306 45,-306 45,-281 1,-281"/>
<text text-anchor="start" x="19" y="-289.8" font-family="Helvetica,sans-Serif" font-size="14.00">1</text>
<polygon fill="none" stroke="black" points="45,-281 45,-306 64,-306 64,-281 45,-281"/>
<text text-anchor="start" x="50.5" y="-289.8" font-family="Helvetica,sans-Serif" font-size="14.00">9</text>
<polygon fill="#ffffcc" stroke="none" points="1,-256 1,-281 45,-281 45,-256 1,-256"/>
<polygon fill="none" stroke="black" points="1,-256 1,-281 45,-281 45,-256 1,-256"/>
<text text-anchor="start" x="19" y="-264.8" font-family="Helvetica,sans-Serif" font-size="14.00">2</text>
<polygon fill="none" stroke="black" points="45,-256 45,-281 64,-281 64,-256 45,-256"/>
<text text-anchor="start" x="50.5" y="-264.8" font-family="Helvetica,sans-Serif" font-size="14.00">8</text>
<polygon fill="#ffffff" stroke="none" points="1,-231 1,-256 45,-256 45,-231 1,-231"/>
<polygon fill="none" stroke="black" points="1,-231 1,-256 45,-256 45,-231 1,-231"/>
<text text-anchor="start" x="14" y="-239.8" font-family="Helvetica,sans-Serif" font-size="14.00">(+)</text>
<polygon fill="none" stroke="black" points="45,-231 45,-256 64,-256 64,-231 45,-231"/>
<text text-anchor="start" x="50.5" y="-239.8" font-family="Helvetica,sans-Serif" font-size="14.00">1</text>
<polygon fill="none" stroke="black" points="1,-206 1,-231 64,-231 64,-206 1,-206"/>
<text text-anchor="start" x="6.5" y="-214.8" font-family="Arial Black" font-size="14.00"> Edges </text>
<polygon fill="none" stroke="black" points="1,-181 1,-206 45,-206 45,-181 1,-181"/>
<text text-anchor="start" x="6.5" y="-189.8" font-family="Helvetica,sans-Serif" font-size="14.00" fill="#000000">isa_1</text>
<polygon fill="none" stroke="black" points="45,-181 45,-206 64,-206 64,-181 45,-181"/>
<text text-anchor="start" x="50.5" y="-189.8" font-family="Helvetica,sans-Serif" font-size="14.00">8</text>
<polygon fill="none" stroke="black" points="1,-156 1,-181 45,-181 45,-156 1,-156"/>
<text text-anchor="start" x="6.5" y="-164.8" font-family="Helvetica,sans-Serif" font-size="14.00" fill="#000000">isa_2</text>
<polygon fill="none" stroke="black" points="45,-156 45,-181 64,-181 64,-156 45,-156"/>
<text text-anchor="start" x="50.5" y="-164.8" font-family="Helvetica,sans-Serif" font-size="14.00">7</text>
<polygon fill="none" stroke="black" points="1,-131 1,-156 45,-156 45,-131 1,-131"/>
<text text-anchor="start" x="12" y="-139.8" font-family="Helvetica,sans-Serif" font-size="14.00" fill="#aa00ff">Art.</text>
<polygon fill="none" stroke="black" points="45,-131 45,-156 64,-156 64,-131 45,-131"/>
<text text-anchor="start" x="50.5" y="-139.8" font-family="Helvetica,sans-Serif" font-size="14.00">8</text>
</g>
</g>
</svg>
