<?xml version="1.0" encoding="UTF-8" standalone="no"?>
<!DOCTYPE svg PUBLIC "-//W3C//DTD SVG 1.1//EN"
 "http://www.w3.org/Graphics/SVG/1.1/DTD/svg11.dtd">
<!-- Generated by graphviz version 2.36.0 (20140111.2315)
 -->
<!-- Title: %3 Pages: 1 -->
<svg width="1316pt" height="186pt"
 viewBox="0.00 0.00 1316.00 186.00" xmlns="http://www.w3.org/2000/svg" xmlns:xlink="http://www.w3.org/1999/xlink">
<g id="graph0" class="graph" transform="scale(1 1) rotate(0) translate(4 182)">
<title>%3</title>
<polygon fill="white" stroke="none" points="-4,4 -4,-182 1312,-182 1312,4 -4,4"/>
<!-- 1995.Amauris_damocles -->
<g id="node1" class="node"><title>1995.Amauris_damocles</title>
<polygon fill="#ffffcc" stroke="black" points="1307.47,-61.5442 1307.47,-76.4558 1238.66,-87 1141.34,-87 1072.53,-76.4558 1072.53,-61.5442 1141.34,-51 1238.66,-51 1307.47,-61.5442"/>
<text text-anchor="middle" x="1190" y="-65.3" font-family="Helvetica,sans-Serif" font-size="14.00">1995.Amauris_damocles</text>
</g>
<!-- 1995.Amauris_damocles_subsp_makuyensis -->
<g id="node2" class="node"><title>1995.Amauris_damocles_subsp_makuyensis</title>
<polygon fill="#ffffcc" stroke="black" points="1034.03,-61.5442 1034.03,-76.4558 914.51,-87 745.49,-87 625.974,-76.4558 625.974,-61.5442 745.49,-51 914.51,-51 1034.03,-61.5442"/>
<text text-anchor="middle" x="830" y="-65.3" font-family="Helvetica,sans-Serif" font-size="14.00">1995.Amauris_damocles_subsp_makuyensis</text>
</g>
<!-- 1995.Amauris_damocles_subsp_makuyensis&#45;&gt;1995.Amauris_damocles -->
<g id="edge1" class="edge"><title>1995.Amauris_damocles_subsp_makuyensis&#45;&gt;1995.Amauris_damocles</title>
<path fill="none" stroke="#000000" d="M1034.06,-69C1043.46,-69 1052.77,-69 1061.89,-69"/>
<polygon fill="#000000" stroke="#000000" points="1062.09,-72.5001 1072.09,-69 1062.09,-65.5001 1062.09,-72.5001"/>
</g>
<!-- 1995.Amauris_damocles_subsp_damocles -->
<g id="node3" class="node"><title>1995.Amauris_damocles_subsp_damocles</title>
<polygon fill="#ffffcc" stroke="black" points="1024.33,-15.5442 1024.33,-30.4558 910.493,-41 749.507,-41 635.672,-30.4558 635.672,-15.5442 749.507,-5 910.493,-5 1024.33,-15.5442"/>
<text text-anchor="middle" x="830" y="-19.3" font-family="Helvetica,sans-Serif" font-size="14.00">1995.Amauris_damocles_subsp_damocles</text>
</g>
<!-- 1995.Amauris_damocles_subsp_damocles&#45;&gt;1995.Amauris_damocles -->
<g id="edge3" class="edge"><title>1995.Amauris_damocles_subsp_damocles&#45;&gt;1995.Amauris_damocles</title>
<path fill="none" stroke="#000000" d="M961.873,-36.2944C985.887,-38.9863 1010.72,-41.9372 1034,-45 1055.09,-47.7745 1077.75,-51.0908 1099.05,-54.3598"/>
<polygon fill="#000000" stroke="#000000" points="1098.63,-57.8376 1109.05,-55.907 1099.7,-50.9198 1098.63,-57.8376"/>
</g>
<!-- 1995.Amauris_damocles_subsp_hyalites -->
<g id="node4" class="node"><title>1995.Amauris_damocles_subsp_hyalites</title>
<polygon fill="#ffffcc" stroke="black" points="1015.04,-107.544 1015.04,-122.456 906.645,-133 753.355,-133 644.963,-122.456 644.963,-107.544 753.355,-97 906.645,-97 1015.04,-107.544"/>
<text text-anchor="middle" x="830" y="-111.3" font-family="Helvetica,sans-Serif" font-size="14.00">1995.Amauris_damocles_subsp_hyalites</text>
</g>
<!-- 1995.Amauris_damocles_subsp_hyalites&#45;&gt;1995.Amauris_damocles -->
<g id="edge2" class="edge"><title>1995.Amauris_damocles_subsp_hyalites&#45;&gt;1995.Amauris_damocles</title>
<path fill="none" stroke="#000000" d="M958.887,-102.039C983.823,-99.2585 1009.75,-96.1899 1034,-93 1055.09,-90.2255 1077.75,-86.9092 1099.05,-83.6402"/>
<polygon fill="#000000" stroke="#000000" points="1099.7,-87.0802 1109.05,-82.093 1098.63,-80.1624 1099.7,-87.0802"/>
</g>
<!-- 1997.Amauris_hyalites_subsp_hyalites -->
<g id="node5" class="node"><title>1997.Amauris_hyalites_subsp_hyalites</title>
<polygon fill="#ccffcc" stroke="black" points="558.5,-135 307.5,-135 307.5,-99 558.5,-99 558.5,-135"/>
<text text-anchor="middle" x="433" y="-113.3" font-family="Helvetica,sans-Serif" font-size="14.00">1997.Amauris_hyalites_subsp_hyalites</text>
</g>
<!-- 1997.Amauris_hyalites_subsp_hyalites&#45;&gt;1995.Amauris_damocles_subsp_hyalites -->
<g id="edge6" class="edge"><title>1997.Amauris_hyalites_subsp_hyalites&#45;&gt;1995.Amauris_damocles_subsp_hyalites</title>
<path fill="none" stroke="#aa00ff" stroke-dasharray="5,2" d="M558.709,-116.369C586.065,-116.23 615.587,-116.081 644.723,-115.933"/>
<text text-anchor="middle" x="599" y="-119.8" font-family="Times,serif" font-size="14.00">&lt;</text>
</g>
<!-- 1997.Amauris_hyalites_subsp_makuyensis -->
<g id="node6" class="node"><title>1997.Amauris_hyalites_subsp_makuyensis</title>
<polygon fill="#ccffcc" stroke="black" points="571.5,-89 294.5,-89 294.5,-53 571.5,-53 571.5,-89"/>
<text text-anchor="middle" x="433" y="-67.3" font-family="Helvetica,sans-Serif" font-size="14.00">1997.Amauris_hyalites_subsp_makuyensis</text>
</g>
<!-- 1997.Amauris_hyalites_subsp_makuyensis&#45;&gt;1995.Amauris_damocles_subsp_makuyensis -->
<g id="edge8" class="edge"><title>1997.Amauris_hyalites_subsp_makuyensis&#45;&gt;1995.Amauris_damocles_subsp_makuyensis</title>
<path fill="none" stroke="#aa00ff" stroke-dasharray="5,2" d="M571.597,-70.3033C589.187,-70.2142 607.476,-70.1216 625.831,-70.0287"/>
<text text-anchor="middle" x="599" y="-74.8" font-family="Times,serif" font-size="14.00">==</text>
</g>
<!-- 1997.Amauris_hyalites -->
<g id="node7" class="node"><title>1997.Amauris_hyalites</title>
<polygon fill="#ccffcc" stroke="black" points="256,-109 102,-109 102,-73 256,-73 256,-109"/>
<text text-anchor="middle" x="179" y="-87.3" font-family="Helvetica,sans-Serif" font-size="14.00">1997.Amauris_hyalites</text>
</g>
<!-- 1997.Amauris_hyalites&#45;&gt;1997.Amauris_hyalites_subsp_hyalites -->
<g id="edge5" class="edge"><title>1997.Amauris_hyalites&#45;&gt;1997.Amauris_hyalites_subsp_hyalites</title>
<path fill="none" stroke="#000000" d="M266.627,-99.9377C279.697,-101.286 293.396,-102.7 307.077,-104.111"/>
<polygon fill="#000000" stroke="#000000" points="266.599,-96.4163 256.292,-98.8714 265.88,-103.379 266.599,-96.4163"/>
</g>
<!-- 1997.Amauris_hyalites&#45;&gt;1997.Amauris_hyalites_subsp_makuyensis -->
<g id="edge4" class="edge"><title>1997.Amauris_hyalites&#45;&gt;1997.Amauris_hyalites_subsp_makuyensis</title>
<path fill="none" stroke="#000000" d="M266.428,-84.1407C275.531,-83.4182 284.94,-82.6714 294.438,-81.9176"/>
<polygon fill="#000000" stroke="#000000" points="265.984,-80.6648 256.292,-84.9451 266.538,-87.6428 265.984,-80.6648"/>
</g>
<!-- 1997.Amauris_damocles -->
<g id="node8" class="node"><title>1997.Amauris_damocles</title>
<polygon fill="#ccffcc" stroke="black" points="516.5,-36 349.5,-36 349.5,-0 516.5,-0 516.5,-36"/>
<text text-anchor="middle" x="433" y="-14.3" font-family="Helvetica,sans-Serif" font-size="14.00">1997.Amauris_damocles</text>
</g>
<!-- 1997.Amauris_damocles&#45;&gt;1995.Amauris_damocles_subsp_damocles -->
<g id="edge7" class="edge"><title>1997.Amauris_damocles&#45;&gt;1995.Amauris_damocles_subsp_damocles</title>
<path fill="none" stroke="#aa00ff" stroke-dasharray="5,2" d="M516.805,-19.0482C551.643,-19.4892 593.768,-20.0224 635.645,-20.5525"/>
<text text-anchor="middle" x="599" y="-24.8" font-family="Times,serif" font-size="14.00">==</text>
</g>
<!-- Legend -->
<g id="node9" class="node"><title>Legend</title>
<polygon fill="white" stroke="black" points="84,-179 7.10543e-15,-179 7.10543e-15,-3 84,-3 84,-179"/>
<polygon fill="none" stroke="black" points="0,-153 0,-179 84,-179 84,-153 0,-153"/>
<text text-anchor="start" x="17.5" y="-162.3" font-family="Arial Black" font-size="14.00"> Nodes</text>
<polygon fill="#ffffcc" stroke="none" points="0,-128 0,-153 66,-153 66,-128 0,-128"/>
<polygon fill="none" stroke="black" points="0,-128 0,-153 66,-153 66,-128 0,-128"/>
<text text-anchor="start" x="17.5" y="-136.8" font-family="Helvetica,sans-Serif" font-size="14.00">1995</text>
<polygon fill="none" stroke="black" points="66,-128 66,-153 84,-153 84,-128 66,-128"/>
<text text-anchor="start" x="71" y="-136.8" font-family="Helvetica,sans-Serif" font-size="14.00">4</text>
<polygon fill="#ccffcc" stroke="none" points="0,-103 0,-128 66,-128 66,-103 0,-103"/>
<polygon fill="none" stroke="black" points="0,-103 0,-128 66,-128 66,-103 0,-103"/>
<text text-anchor="start" x="17.5" y="-111.8" font-family="Helvetica,sans-Serif" font-size="14.00">1997</text>
<polygon fill="none" stroke="black" points="66,-103 66,-128 84,-128 84,-103 66,-103"/>
<text text-anchor="start" x="71" y="-111.8" font-family="Helvetica,sans-Serif" font-size="14.00">4</text>
<polygon fill="none" stroke="black" points="0,-78 0,-103 84,-103 84,-78 0,-78"/>
<text text-anchor="start" x="16" y="-86.8" font-family="Arial Black" font-size="14.00"> Edges </text>
<polygon fill="none" stroke="black" points="0,-53 0,-78 66,-78 66,-53 0,-53"/>
<text text-anchor="start" x="5.5" y="-61.8" font-family="Helvetica,sans-Serif" font-size="14.00" fill="#000000">isa_1995</text>
<polygon fill="none" stroke="black" points="66,-53 66,-78 84,-78 84,-53 66,-53"/>
<text text-anchor="start" x="71" y="-61.8" font-family="Helvetica,sans-Serif" font-size="14.00">3</text>
<polygon fill="none" stroke="black" points="0,-28 0,-53 66,-53 66,-28 0,-28"/>
<text text-anchor="start" x="5.5" y="-36.8" font-family="Helvetica,sans-Serif" font-size="14.00" fill="#000000">isa_1997</text>
<polygon fill="none" stroke="black" points="66,-28 66,-53 84,-53 84,-28 66,-28"/>
<text text-anchor="start" x="71" y="-36.8" font-family="Helvetica,sans-Serif" font-size="14.00">2</text>
<polygon fill="none" stroke="black" points="0,-3 0,-28 66,-28 66,-3 0,-3"/>
<text text-anchor="start" x="22" y="-11.8" font-family="Helvetica,sans-Serif" font-size="14.00" fill="#aa00ff">Art.</text>
<polygon fill="none" stroke="black" points="66,-3 66,-28 84,-28 84,-3 66,-3"/>
<text text-anchor="start" x="71" y="-11.8" font-family="Helvetica,sans-Serif" font-size="14.00">3</text>
</g>
</g>
</svg>
