<?xml version="1.0" encoding="UTF-8" standalone="no"?>
<!DOCTYPE svg PUBLIC "-//W3C//DTD SVG 1.1//EN"
 "http://www.w3.org/Graphics/SVG/1.1/DTD/svg11.dtd">
<!-- Generated by graphviz version 2.36.0 (20140111.2315)
 -->
<!-- Title: %3 Pages: 1 -->
<svg width="900pt" height="238pt"
 viewBox="0.00 0.00 900.00 238.00" xmlns="http://www.w3.org/2000/svg" xmlns:xlink="http://www.w3.org/1999/xlink">
<g id="graph0" class="graph" transform="scale(1 1) rotate(0) translate(4 234)">
<title>%3</title>
<polygon fill="white" stroke="none" points="-4,4 -4,-234 896,-234 896,4 -4,4"/>
<!-- 1997.Amauris_damocles\n1995.Amauris_damocles_subsp_damocles -->
<g id="node1" class="node"><title>1997.Amauris_damocles\n1995.Amauris_damocles_subsp_damocles</title>
<path fill="#eeeeee" stroke="black" d="M726.5,-174C726.5,-174 501.5,-174 501.5,-174 495.5,-174 489.5,-168 489.5,-162 489.5,-162 489.5,-148 489.5,-148 489.5,-142 495.5,-136 501.5,-136 501.5,-136 726.5,-136 726.5,-136 732.5,-136 738.5,-142 738.5,-148 738.5,-148 738.5,-162 738.5,-162 738.5,-168 732.5,-174 726.5,-174"/>
<text text-anchor="middle" x="614" y="-158.8" font-family="Times,serif" font-size="14.00">1997.Amauris_damocles</text>
<text text-anchor="middle" x="614" y="-143.8" font-family="Times,serif" font-size="14.00">1995.Amauris_damocles_subsp_damocles</text>
</g>
<!-- 1995.Amauris_damocles -->
<g id="node3" class="node"><title>1995.Amauris_damocles</title>
<polygon fill="#ffffcc" stroke="black" points="402.769,-147.544 402.769,-162.456 339.639,-173 250.361,-173 187.231,-162.456 187.231,-147.544 250.361,-137 339.639,-137 402.769,-147.544"/>
<text text-anchor="middle" x="295" y="-151.3" font-family="Times,serif" font-size="14.00">1995.Amauris_damocles</text>
</g>
<!-- 1997.Amauris_damocles\n1995.Amauris_damocles_subsp_damocles&#45;&gt;1995.Amauris_damocles -->
<g id="edge5" class="edge"><title>1997.Amauris_damocles\n1995.Amauris_damocles_subsp_damocles&#45;&gt;1995.Amauris_damocles</title>
<path fill="none" stroke="#000000" d="M489.078,-155C464.047,-155 437.808,-155 413.024,-155"/>
<polygon fill="#000000" stroke="#000000" points="412.869,-151.5 402.869,-155 412.869,-158.5 412.869,-151.5"/>
</g>
<!-- 1997.Amauris_hyalites_subsp_makuyensis\n1995.Amauris_damocles_subsp_makuyensis -->
<g id="node2" class="node"><title>1997.Amauris_hyalites_subsp_makuyensis\n1995.Amauris_damocles_subsp_makuyensis</title>
<path fill="#eeeeee" stroke="black" d="M733,-230C733,-230 495,-230 495,-230 489,-230 483,-224 483,-218 483,-218 483,-204 483,-204 483,-198 489,-192 495,-192 495,-192 733,-192 733,-192 739,-192 745,-198 745,-204 745,-204 745,-218 745,-218 745,-224 739,-230 733,-230"/>
<text text-anchor="middle" x="614" y="-214.8" font-family="Times,serif" font-size="14.00">1997.Amauris_hyalites_subsp_makuyensis</text>
<text text-anchor="middle" x="614" y="-199.8" font-family="Times,serif" font-size="14.00">1995.Amauris_damocles_subsp_makuyensis</text>
</g>
<!-- 1997.Amauris_hyalites_subsp_makuyensis\n1995.Amauris_damocles_subsp_makuyensis&#45;&gt;1995.Amauris_damocles -->
<g id="edge6" class="edge"><title>1997.Amauris_hyalites_subsp_makuyensis\n1995.Amauris_damocles_subsp_makuyensis&#45;&gt;1995.Amauris_damocles</title>
<path fill="none" stroke="#000000" d="M497.963,-191.998C480.543,-189.038 462.789,-185.974 446,-183 423.605,-179.033 399.361,-174.577 377.027,-170.408"/>
<polygon fill="#000000" stroke="#000000" points="377.387,-166.914 366.913,-168.514 376.099,-173.795 377.387,-166.914"/>
</g>
<!-- 1997.Amauris_hyalites -->
<g id="node5" class="node"><title>1997.Amauris_hyalites</title>
<polygon fill="#ccffcc" stroke="black" points="143.5,-146 0.5,-146 0.5,-110 143.5,-110 143.5,-146"/>
<text text-anchor="middle" x="72" y="-124.3" font-family="Times,serif" font-size="14.00">1997.Amauris_hyalites</text>
</g>
<!-- 1997.Amauris_hyalites_subsp_makuyensis\n1995.Amauris_damocles_subsp_makuyensis&#45;&gt;1997.Amauris_hyalites -->
<g id="edge7" class="edge"><title>1997.Amauris_hyalites_subsp_makuyensis\n1995.Amauris_damocles_subsp_makuyensis&#45;&gt;1997.Amauris_hyalites</title>
<path fill="none" stroke="#000000" d="M482.877,-215.688C395.712,-215.588 279.194,-209.146 180,-182 155.46,-175.284 129.952,-162.665 109.999,-151.313"/>
<polygon fill="#000000" stroke="#000000" points="111.648,-148.223 101.246,-146.212 108.124,-154.271 111.648,-148.223"/>
</g>
<!-- 1995.Amauris_damocles&#45;&gt;1997.Amauris_hyalites -->
<g id="edge2" class="edge"><title>1995.Amauris_damocles&#45;&gt;1997.Amauris_hyalites</title>
<path fill="none" stroke="#0000ff" stroke-dasharray="1,5" d="M206.338,-144.29C185.489,-141.743 163.506,-139.057 143.536,-136.618"/>
</g>
<!-- 1997.Amauris_hyalites_subsp_hyalites -->
<g id="node6" class="node"><title>1997.Amauris_hyalites_subsp_hyalites</title>
<polygon fill="#ccffcc" stroke="black" points="410,-119 180,-119 180,-83 410,-83 410,-119"/>
<text text-anchor="middle" x="295" y="-97.3" font-family="Times,serif" font-size="14.00">1997.Amauris_hyalites_subsp_hyalites</text>
</g>
<!-- 1995.Amauris_damocles&#45;&gt;1997.Amauris_hyalites_subsp_hyalites -->
<g id="edge1" class="edge"><title>1995.Amauris_damocles&#45;&gt;1997.Amauris_hyalites_subsp_hyalites</title>
<path fill="none" stroke="#0000ff" stroke-dasharray="1,5" d="M295,-136.79C295,-130.907 295,-125.024 295,-119.141"/>
</g>
<!-- 1995.Amauris_damocles_subsp_hyalites -->
<g id="node4" class="node"><title>1995.Amauris_damocles_subsp_hyalites</title>
<polygon fill="#ffffcc" stroke="black" points="782.27,-92.5442 782.27,-107.456 683.7,-118 544.3,-118 445.73,-107.456 445.73,-92.5442 544.3,-82 683.7,-82 782.27,-92.5442"/>
<text text-anchor="middle" x="614" y="-96.3" font-family="Times,serif" font-size="14.00">1995.Amauris_damocles_subsp_hyalites</text>
</g>
<!-- 1995.Amauris_damocles_subsp_hyalites&#45;&gt;1995.Amauris_damocles -->
<g id="edge4" class="edge"><title>1995.Amauris_damocles_subsp_hyalites&#45;&gt;1995.Amauris_damocles</title>
<path fill="none" stroke="#000000" d="M517.116,-115.093C493.824,-118.873 469.003,-122.994 446,-127 423.379,-130.939 398.881,-135.421 376.371,-139.626"/>
<polygon fill="#000000" stroke="#000000" points="375.704,-136.19 366.52,-141.472 376.994,-143.07 375.704,-136.19"/>
</g>
<!-- 1995.Amauris_damocles_subsp_hyalites&#45;&gt;1997.Amauris_hyalites_subsp_hyalites -->
<g id="edge8" class="edge"><title>1995.Amauris_damocles_subsp_hyalites&#45;&gt;1997.Amauris_hyalites_subsp_hyalites</title>
<path fill="none" stroke="#ff0000" d="M445.681,-100.528C437.216,-100.555 428.785,-100.581 420.484,-100.607"/>
<polygon fill="#ff0000" stroke="#ff0000" points="420.419,-97.1074 410.43,-100.639 420.441,-104.107 420.419,-97.1074"/>
</g>
<!-- 1997.Amauris_hyalites_subsp_hyalites&#45;&gt;1997.Amauris_hyalites -->
<g id="edge3" class="edge"><title>1997.Amauris_hyalites_subsp_hyalites&#45;&gt;1997.Amauris_hyalites</title>
<path fill="none" stroke="#000000" d="M179.94,-114.935C171.064,-116.019 162.219,-117.1 153.634,-118.149"/>
<polygon fill="#000000" stroke="#000000" points="153.191,-114.677 143.69,-119.364 154.04,-121.625 153.191,-114.677"/>
</g>
<!-- Legend -->
<g id="node7" class="node"><title>Legend</title>
<polygon fill="white" stroke="black" points="892,-200.5 818,-200.5 818,0.5 892,0.5 892,-200.5"/>
<polygon fill="none" stroke="black" points="818,-174 818,-200 892,-200 892,-174 818,-174"/>
<text text-anchor="start" x="830.5" y="-183.3" font-family="Arial Black" font-size="14.00"> Nodes</text>
<polygon fill="#eeeeee" stroke="none" points="818,-149 818,-174 875,-174 875,-149 818,-149"/>
<polygon fill="none" stroke="black" points="818,-149 818,-174 875,-174 875,-149 818,-149"/>
<text text-anchor="start" x="831" y="-157.8" font-family="Times,serif" font-size="14.00">comb</text>
<polygon fill="none" stroke="black" points="875,-149 875,-174 892,-174 892,-149 875,-149"/>
<text text-anchor="start" x="880" y="-157.8" font-family="Times,serif" font-size="14.00">2</text>
<polygon fill="#ffffcc" stroke="none" points="818,-124 818,-149 875,-149 875,-124 818,-124"/>
<polygon fill="none" stroke="black" points="818,-124 818,-149 875,-149 875,-124 818,-124"/>
<text text-anchor="start" x="832.5" y="-132.8" font-family="Times,serif" font-size="14.00">1995</text>
<polygon fill="none" stroke="black" points="875,-124 875,-149 892,-149 892,-124 875,-124"/>
<text text-anchor="start" x="880" y="-132.8" font-family="Times,serif" font-size="14.00">2</text>
<polygon fill="#ccffcc" stroke="none" points="818,-99 818,-124 875,-124 875,-99 818,-99"/>
<polygon fill="none" stroke="black" points="818,-99 818,-124 875,-124 875,-99 818,-99"/>
<text text-anchor="start" x="832.5" y="-107.8" font-family="Times,serif" font-size="14.00">1997</text>
<polygon fill="none" stroke="black" points="875,-99 875,-124 892,-124 892,-99 875,-99"/>
<text text-anchor="start" x="880" y="-107.8" font-family="Times,serif" font-size="14.00">2</text>
<polygon fill="none" stroke="black" points="818,-74 818,-99 892,-99 892,-74 818,-74"/>
<text text-anchor="start" x="829" y="-82.8" font-family="Arial Black" font-size="14.00"> Edges </text>
<polygon fill="none" stroke="black" points="818,-49 818,-74 875,-74 875,-49 818,-49"/>
<text text-anchor="start" x="823.5" y="-57.8" font-family="Times,serif" font-size="14.00" fill="#0000ff">overlaps</text>
<polygon fill="none" stroke="black" points="875,-49 875,-74 892,-74 892,-49 875,-49"/>
<text text-anchor="start" x="880" y="-57.8" font-family="Times,serif" font-size="14.00">2</text>
<polygon fill="none" stroke="black" points="818,-24 818,-49 875,-49 875,-24 818,-24"/>
<text text-anchor="start" x="832.5" y="-32.8" font-family="Times,serif" font-size="14.00" fill="#000000">input</text>
<polygon fill="none" stroke="black" points="875,-24 875,-49 892,-49 892,-24 875,-24"/>
<text text-anchor="start" x="880" y="-32.8" font-family="Times,serif" font-size="14.00">5</text>
<polygon fill="none" stroke="black" points="818,1 818,-24 875,-24 875,1 818,1"/>
<text text-anchor="start" x="825" y="-7.8" font-family="Times,serif" font-size="14.00" fill="#ff0000">inferred</text>
<polygon fill="none" stroke="black" points="875,1 875,-24 892,-24 892,1 875,1"/>
<text text-anchor="start" x="880" y="-7.8" font-family="Times,serif" font-size="14.00">1</text>
</g>
</g>
</svg>
