<?xml version="1.0" encoding="UTF-8" standalone="no"?>
<!DOCTYPE svg PUBLIC "-//W3C//DTD SVG 1.1//EN"
 "http://www.w3.org/Graphics/SVG/1.1/DTD/svg11.dtd">
<!-- Generated by graphviz version 2.36.0 (20140111.2315)
 -->
<!-- Title: %3 Pages: 1 -->
<svg width="810pt" height="226pt"
 viewBox="0.00 0.00 810.00 226.00" xmlns="http://www.w3.org/2000/svg" xmlns:xlink="http://www.w3.org/1999/xlink">
<g id="graph0" class="graph" transform="scale(1 1) rotate(0) translate(4 222)">
<title>%3</title>
<polygon fill="white" stroke="none" points="-4,4 -4,-222 806,-222 806,4 -4,4"/>
<!-- 1997.Amauris_damocles\n1995.Amauris_damocles_subsp_damocles -->
<g id="node1" class="node"><title>1997.Amauris_damocles\n1995.Amauris_damocles_subsp_damocles</title>
<path fill="#eeeeee" stroke="black" d="M675.5,-218C675.5,-218 450.5,-218 450.5,-218 444.5,-218 438.5,-212 438.5,-206 438.5,-206 438.5,-192 438.5,-192 438.5,-186 444.5,-180 450.5,-180 450.5,-180 675.5,-180 675.5,-180 681.5,-180 687.5,-186 687.5,-192 687.5,-192 687.5,-206 687.5,-206 687.5,-212 681.5,-218 675.5,-218"/>
<text text-anchor="middle" x="563" y="-202.8" font-family="Times,serif" font-size="14.00">1997.Amauris_damocles</text>
<text text-anchor="middle" x="563" y="-187.8" font-family="Times,serif" font-size="14.00">1995.Amauris_damocles_subsp_damocles</text>
</g>
<!-- 1995.Amauris_damocles -->
<g id="node4" class="node"><title>1995.Amauris_damocles</title>
<polygon fill="#ffffcc" stroke="black" points="215.769,-163.544 215.769,-178.456 152.639,-189 63.3607,-189 0.231124,-178.456 0.231124,-163.544 63.3607,-153 152.639,-153 215.769,-163.544"/>
<text text-anchor="middle" x="108" y="-167.3" font-family="Times,serif" font-size="14.00">1995.Amauris_damocles</text>
</g>
<!-- 1997.Amauris_damocles\n1995.Amauris_damocles_subsp_damocles&#45;&gt;1995.Amauris_damocles -->
<g id="edge1" class="edge"><title>1997.Amauris_damocles\n1995.Amauris_damocles_subsp_damocles&#45;&gt;1995.Amauris_damocles</title>
<path fill="none" stroke="#000000" d="M438.216,-191.349C372.072,-187.261 291.102,-182.256 226.014,-178.233"/>
<polygon fill="#000000" stroke="#000000" points="225.906,-174.719 215.709,-177.596 225.474,-181.706 225.906,-174.719"/>
</g>
<!-- 1997.Amauris_hyalites_subsp_makuyensis\n1995.Amauris_damocles_subsp_makuyensis -->
<g id="node2" class="node"><title>1997.Amauris_hyalites_subsp_makuyensis\n1995.Amauris_damocles_subsp_makuyensis</title>
<path fill="#eeeeee" stroke="black" d="M682,-162C682,-162 444,-162 444,-162 438,-162 432,-156 432,-150 432,-150 432,-136 432,-136 432,-130 438,-124 444,-124 444,-124 682,-124 682,-124 688,-124 694,-130 694,-136 694,-136 694,-150 694,-150 694,-156 688,-162 682,-162"/>
<text text-anchor="middle" x="563" y="-146.8" font-family="Times,serif" font-size="14.00">1997.Amauris_hyalites_subsp_makuyensis</text>
<text text-anchor="middle" x="563" y="-131.8" font-family="Times,serif" font-size="14.00">1995.Amauris_damocles_subsp_makuyensis</text>
</g>
<!-- 1997.Amauris_hyalites -->
<g id="node5" class="node"><title>1997.Amauris_hyalites</title>
<polygon fill="#ccffcc" stroke="black" points="395.5,-161 252.5,-161 252.5,-125 395.5,-125 395.5,-161"/>
<text text-anchor="middle" x="324" y="-139.3" font-family="Times,serif" font-size="14.00">1997.Amauris_hyalites</text>
</g>
<!-- 1997.Amauris_hyalites_subsp_makuyensis\n1995.Amauris_damocles_subsp_makuyensis&#45;&gt;1997.Amauris_hyalites -->
<g id="edge3" class="edge"><title>1997.Amauris_hyalites_subsp_makuyensis\n1995.Amauris_damocles_subsp_makuyensis&#45;&gt;1997.Amauris_hyalites</title>
<path fill="none" stroke="#000000" d="M431.714,-143C422.92,-143 414.213,-143 405.79,-143"/>
<polygon fill="#000000" stroke="#000000" points="405.67,-139.5 395.67,-143 405.67,-146.5 405.67,-139.5"/>
</g>
<!-- 1997.Amauris_hyalites_subsp_hyalites\n1995.Amauris_damocles_subsp_hyalites -->
<g id="node3" class="node"><title>1997.Amauris_hyalites_subsp_hyalites\n1995.Amauris_damocles_subsp_hyalites</title>
<path fill="#eeeeee" stroke="black" d="M670.5,-106C670.5,-106 455.5,-106 455.5,-106 449.5,-106 443.5,-100 443.5,-94 443.5,-94 443.5,-80 443.5,-80 443.5,-74 449.5,-68 455.5,-68 455.5,-68 670.5,-68 670.5,-68 676.5,-68 682.5,-74 682.5,-80 682.5,-80 682.5,-94 682.5,-94 682.5,-100 676.5,-106 670.5,-106"/>
<text text-anchor="middle" x="563" y="-90.8" font-family="Times,serif" font-size="14.00">1997.Amauris_hyalites_subsp_hyalites</text>
<text text-anchor="middle" x="563" y="-75.8" font-family="Times,serif" font-size="14.00">1995.Amauris_damocles_subsp_hyalites</text>
</g>
<!-- 1997.Amauris_hyalites_subsp_hyalites\n1995.Amauris_damocles_subsp_hyalites&#45;&gt;1997.Amauris_hyalites -->
<g id="edge2" class="edge"><title>1997.Amauris_hyalites_subsp_hyalites\n1995.Amauris_damocles_subsp_hyalites&#45;&gt;1997.Amauris_hyalites</title>
<path fill="none" stroke="#000000" d="M470.968,-106.077C457.871,-108.975 444.576,-112.002 432,-115 422.162,-117.345 411.844,-119.911 401.658,-122.507"/>
<polygon fill="#000000" stroke="#000000" points="400.769,-119.121 391.954,-124.998 402.51,-125.901 400.769,-119.121"/>
</g>
<!-- 1997.Amauris_hyalites&#45;&gt;1995.Amauris_damocles -->
<g id="edge4" class="edge"><title>1997.Amauris_hyalites&#45;&gt;1995.Amauris_damocles</title>
<path fill="none" stroke="#ff0000" d="M252.335,-152.246C236.91,-154.264 220.341,-156.432 204.14,-158.552"/>
<polygon fill="#ff0000" stroke="#ff0000" points="203.574,-155.096 194.113,-159.864 204.482,-162.037 203.574,-155.096"/>
</g>
<!-- Legend -->
<g id="node6" class="node"><title>Legend</title>
<polygon fill="white" stroke="black" points="801.5,-175 730.5,-175 730.5,1 801.5,1 801.5,-175"/>
<polygon fill="none" stroke="black" points="731,-149 731,-175 802,-175 802,-149 731,-149"/>
<text text-anchor="start" x="742" y="-158.3" font-family="Arial Black" font-size="14.00"> Nodes</text>
<polygon fill="#eeeeee" stroke="none" points="731,-124 731,-149 785,-149 785,-124 731,-124"/>
<polygon fill="none" stroke="black" points="731,-124 731,-149 785,-149 785,-124 731,-124"/>
<text text-anchor="start" x="742.5" y="-132.8" font-family="Times,serif" font-size="14.00">comb</text>
<polygon fill="none" stroke="black" points="785,-124 785,-149 802,-149 802,-124 785,-124"/>
<text text-anchor="start" x="790" y="-132.8" font-family="Times,serif" font-size="14.00">3</text>
<polygon fill="#ffffcc" stroke="none" points="731,-99 731,-124 785,-124 785,-99 731,-99"/>
<polygon fill="none" stroke="black" points="731,-99 731,-124 785,-124 785,-99 731,-99"/>
<text text-anchor="start" x="744" y="-107.8" font-family="Times,serif" font-size="14.00">1995</text>
<polygon fill="none" stroke="black" points="785,-99 785,-124 802,-124 802,-99 785,-99"/>
<text text-anchor="start" x="790" y="-107.8" font-family="Times,serif" font-size="14.00">1</text>
<polygon fill="#ccffcc" stroke="none" points="731,-74 731,-99 785,-99 785,-74 731,-74"/>
<polygon fill="none" stroke="black" points="731,-74 731,-99 785,-99 785,-74 731,-74"/>
<text text-anchor="start" x="744" y="-82.8" font-family="Times,serif" font-size="14.00">1997</text>
<polygon fill="none" stroke="black" points="785,-74 785,-99 802,-99 802,-74 785,-74"/>
<text text-anchor="start" x="790" y="-82.8" font-family="Times,serif" font-size="14.00">1</text>
<polygon fill="none" stroke="black" points="731,-49 731,-74 802,-74 802,-49 731,-49"/>
<text text-anchor="start" x="740.5" y="-57.8" font-family="Arial Black" font-size="14.00"> Edges </text>
<polygon fill="none" stroke="black" points="731,-24 731,-49 785,-49 785,-24 731,-24"/>
<text text-anchor="start" x="744" y="-32.8" font-family="Times,serif" font-size="14.00" fill="#000000">input</text>
<polygon fill="none" stroke="black" points="785,-24 785,-49 802,-49 802,-24 785,-24"/>
<text text-anchor="start" x="790" y="-32.8" font-family="Times,serif" font-size="14.00">3</text>
<polygon fill="none" stroke="black" points="731,1 731,-24 785,-24 785,1 731,1"/>
<text text-anchor="start" x="736.5" y="-7.8" font-family="Times,serif" font-size="14.00" fill="#ff0000">inferred</text>
<polygon fill="none" stroke="black" points="785,1 785,-24 802,-24 802,1 785,1"/>
<text text-anchor="start" x="790" y="-7.8" font-family="Times,serif" font-size="14.00">1</text>
</g>
</g>
</svg>
