<?xml version="1.0" encoding="UTF-8" standalone="no"?>
<!DOCTYPE svg PUBLIC "-//W3C//DTD SVG 1.1//EN"
 "http://www.w3.org/Graphics/SVG/1.1/DTD/svg11.dtd">
<!-- Generated by graphviz version 2.36.0 (20140111.2315)
 -->
<!-- Title: %3 Pages: 1 -->
<svg width="1004pt" height="237pt"
 viewBox="0.00 0.00 1004.00 237.00" xmlns="http://www.w3.org/2000/svg" xmlns:xlink="http://www.w3.org/1999/xlink">
<g id="graph0" class="graph" transform="scale(1 1) rotate(0) translate(4 233)">
<title>%3</title>
<polygon fill="white" stroke="none" points="-4,4 -4,-233 1000,-233 1000,4 -4,4"/>
<!-- 1997.Amauris_damocles\n1995.Amauris_damocles_subsp_damocles -->
<g id="node1" class="node"><title>1997.Amauris_damocles\n1995.Amauris_damocles_subsp_damocles</title>
<path fill="#eeeeee" stroke="black" d="M867.5,-229C867.5,-229 642.5,-229 642.5,-229 636.5,-229 630.5,-223 630.5,-217 630.5,-217 630.5,-203 630.5,-203 630.5,-197 636.5,-191 642.5,-191 642.5,-191 867.5,-191 867.5,-191 873.5,-191 879.5,-197 879.5,-203 879.5,-203 879.5,-217 879.5,-217 879.5,-223 873.5,-229 867.5,-229"/>
<text text-anchor="middle" x="755" y="-213.8" font-family="Times,serif" font-size="14.00">1997.Amauris_damocles</text>
<text text-anchor="middle" x="755" y="-198.8" font-family="Times,serif" font-size="14.00">1995.Amauris_damocles_subsp_damocles</text>
</g>
<!-- 1995.Amauris_damocles -->
<g id="node3" class="node"><title>1995.Amauris_damocles</title>
<polygon fill="#ffffcc" stroke="black" points="215.769,-151.544 215.769,-166.456 152.639,-177 63.3607,-177 0.231124,-166.456 0.231124,-151.544 63.3607,-141 152.639,-141 215.769,-151.544"/>
<text text-anchor="middle" x="108" y="-155.3" font-family="Times,serif" font-size="14.00">1995.Amauris_damocles</text>
</g>
<!-- 1997.Amauris_damocles\n1995.Amauris_damocles_subsp_damocles&#45;&gt;1995.Amauris_damocles -->
<g id="edge2" class="edge"><title>1997.Amauris_damocles\n1995.Amauris_damocles_subsp_damocles&#45;&gt;1995.Amauris_damocles</title>
<path fill="none" stroke="#000000" d="M630.341,-208.862C528.491,-206.78 380.464,-201.124 252,-186 229.914,-183.4 206.111,-179.396 184.382,-175.261"/>
<polygon fill="#000000" stroke="#000000" points="185.041,-171.823 174.558,-173.356 183.709,-178.695 185.041,-171.823"/>
</g>
<!-- 1997.Amauris_hyalites_subsp_makuyensis\n1995.Amauris_damocles_subsp_makuyensis -->
<g id="node2" class="node"><title>1997.Amauris_hyalites_subsp_makuyensis\n1995.Amauris_damocles_subsp_makuyensis</title>
<path fill="#eeeeee" stroke="black" d="M874,-119C874,-119 636,-119 636,-119 630,-119 624,-113 624,-107 624,-107 624,-93 624,-93 624,-87 630,-81 636,-81 636,-81 874,-81 874,-81 880,-81 886,-87 886,-93 886,-93 886,-107 886,-107 886,-113 880,-119 874,-119"/>
<text text-anchor="middle" x="755" y="-103.8" font-family="Times,serif" font-size="14.00">1997.Amauris_hyalites_subsp_makuyensis</text>
<text text-anchor="middle" x="755" y="-88.8" font-family="Times,serif" font-size="14.00">1995.Amauris_damocles_subsp_makuyensis</text>
</g>
<!-- 1997.Amauris_hyalites -->
<g id="node5" class="node"><title>1997.Amauris_hyalites</title>
<polygon fill="#ccffcc" stroke="black" points="491.5,-123 348.5,-123 348.5,-87 491.5,-87 491.5,-123"/>
<text text-anchor="middle" x="420" y="-101.3" font-family="Times,serif" font-size="14.00">1997.Amauris_hyalites</text>
</g>
<!-- 1997.Amauris_hyalites_subsp_makuyensis\n1995.Amauris_damocles_subsp_makuyensis&#45;&gt;1997.Amauris_hyalites -->
<g id="edge5" class="edge"><title>1997.Amauris_hyalites_subsp_makuyensis\n1995.Amauris_damocles_subsp_makuyensis&#45;&gt;1997.Amauris_hyalites</title>
<path fill="none" stroke="#000000" d="M623.823,-101.955C582.638,-102.573 538.337,-103.238 501.676,-103.789"/>
<polygon fill="#000000" stroke="#000000" points="501.493,-100.291 491.547,-103.941 501.598,-107.29 501.493,-100.291"/>
</g>
<!-- 1995.Amauris_damocles_subsp_hyalites -->
<g id="node4" class="node"><title>1995.Amauris_damocles_subsp_hyalites</title>
<polygon fill="#ffffcc" stroke="black" points="588.27,-151.544 588.27,-166.456 489.7,-177 350.3,-177 251.73,-166.456 251.73,-151.544 350.3,-141 489.7,-141 588.27,-151.544"/>
<text text-anchor="middle" x="420" y="-155.3" font-family="Times,serif" font-size="14.00">1995.Amauris_damocles_subsp_hyalites</text>
</g>
<!-- 1995.Amauris_damocles_subsp_hyalites&#45;&gt;1995.Amauris_damocles -->
<g id="edge4" class="edge"><title>1995.Amauris_damocles_subsp_hyalites&#45;&gt;1995.Amauris_damocles</title>
<path fill="none" stroke="#000000" d="M251.751,-159C243.11,-159 234.52,-159 226.09,-159"/>
<polygon fill="#000000" stroke="#000000" points="225.894,-155.5 215.894,-159 225.894,-162.5 225.894,-155.5"/>
</g>
<!-- 1995.Amauris_damocles_subsp_hyalites&#45;&gt;1997.Amauris_hyalites -->
<g id="edge1" class="edge"><title>1995.Amauris_damocles_subsp_hyalites&#45;&gt;1997.Amauris_hyalites</title>
<path fill="none" stroke="#0000ff" stroke-dasharray="1,5" d="M420,-140.79C420,-134.907 420,-129.024 420,-123.141"/>
</g>
<!-- 1997.Amauris_hyalites&#45;&gt;1995.Amauris_damocles -->
<g id="edge6" class="edge"><title>1997.Amauris_hyalites&#45;&gt;1995.Amauris_damocles</title>
<path fill="none" stroke="#ff0000" d="M348.236,-116.019C318.488,-120.76 283.532,-126.475 252,-132 231.576,-135.579 209.55,-139.638 189.049,-143.501"/>
<polygon fill="#ff0000" stroke="#ff0000" points="188.296,-140.081 179.121,-145.379 189.597,-146.96 188.296,-140.081"/>
</g>
<!-- 1997.Amauris_hyalites_subsp_hyalites -->
<g id="node6" class="node"><title>1997.Amauris_hyalites_subsp_hyalites</title>
<polygon fill="#ccffcc" stroke="black" points="870,-173 640,-173 640,-137 870,-137 870,-173"/>
<text text-anchor="middle" x="755" y="-151.3" font-family="Times,serif" font-size="14.00">1997.Amauris_hyalites_subsp_hyalites</text>
</g>
<!-- 1997.Amauris_hyalites_subsp_hyalites&#45;&gt;1995.Amauris_damocles_subsp_hyalites -->
<g id="edge7" class="edge"><title>1997.Amauris_hyalites_subsp_hyalites&#45;&gt;1995.Amauris_damocles_subsp_hyalites</title>
<path fill="none" stroke="#ff0000" d="M639.866,-156.371C626.458,-156.532 612.546,-156.699 598.529,-156.868"/>
<polygon fill="#ff0000" stroke="#ff0000" points="598.267,-153.37 588.309,-156.99 598.351,-160.37 598.267,-153.37"/>
</g>
<!-- 1997.Amauris_hyalites_subsp_hyalites&#45;&gt;1997.Amauris_hyalites -->
<g id="edge3" class="edge"><title>1997.Amauris_hyalites_subsp_hyalites&#45;&gt;1997.Amauris_hyalites</title>
<path fill="none" stroke="#000000" d="M639.866,-137.863C594.469,-131.046 543.29,-123.362 501.843,-117.139"/>
<polygon fill="#000000" stroke="#000000" points="502.207,-113.654 491.798,-115.63 501.168,-120.577 502.207,-113.654"/>
</g>
<!-- Legend -->
<g id="node7" class="node"><title>Legend</title>
<polygon fill="white" stroke="black" points="996,-200.5 922,-200.5 922,0.5 996,0.5 996,-200.5"/>
<polygon fill="none" stroke="black" points="922,-174 922,-200 996,-200 996,-174 922,-174"/>
<text text-anchor="start" x="934.5" y="-183.3" font-family="Arial Black" font-size="14.00"> Nodes</text>
<polygon fill="#eeeeee" stroke="none" points="922,-149 922,-174 979,-174 979,-149 922,-149"/>
<polygon fill="none" stroke="black" points="922,-149 922,-174 979,-174 979,-149 922,-149"/>
<text text-anchor="start" x="935" y="-157.8" font-family="Times,serif" font-size="14.00">comb</text>
<polygon fill="none" stroke="black" points="979,-149 979,-174 996,-174 996,-149 979,-149"/>
<text text-anchor="start" x="984" y="-157.8" font-family="Times,serif" font-size="14.00">2</text>
<polygon fill="#ffffcc" stroke="none" points="922,-124 922,-149 979,-149 979,-124 922,-124"/>
<polygon fill="none" stroke="black" points="922,-124 922,-149 979,-149 979,-124 922,-124"/>
<text text-anchor="start" x="936.5" y="-132.8" font-family="Times,serif" font-size="14.00">1995</text>
<polygon fill="none" stroke="black" points="979,-124 979,-149 996,-149 996,-124 979,-124"/>
<text text-anchor="start" x="984" y="-132.8" font-family="Times,serif" font-size="14.00">2</text>
<polygon fill="#ccffcc" stroke="none" points="922,-99 922,-124 979,-124 979,-99 922,-99"/>
<polygon fill="none" stroke="black" points="922,-99 922,-124 979,-124 979,-99 922,-99"/>
<text text-anchor="start" x="936.5" y="-107.8" font-family="Times,serif" font-size="14.00">1997</text>
<polygon fill="none" stroke="black" points="979,-99 979,-124 996,-124 996,-99 979,-99"/>
<text text-anchor="start" x="984" y="-107.8" font-family="Times,serif" font-size="14.00">2</text>
<polygon fill="none" stroke="black" points="922,-74 922,-99 996,-99 996,-74 922,-74"/>
<text text-anchor="start" x="933" y="-82.8" font-family="Arial Black" font-size="14.00"> Edges </text>
<polygon fill="none" stroke="black" points="922,-49 922,-74 979,-74 979,-49 922,-49"/>
<text text-anchor="start" x="927.5" y="-57.8" font-family="Times,serif" font-size="14.00" fill="#0000ff">overlaps</text>
<polygon fill="none" stroke="black" points="979,-49 979,-74 996,-74 996,-49 979,-49"/>
<text text-anchor="start" x="984" y="-57.8" font-family="Times,serif" font-size="14.00">1</text>
<polygon fill="none" stroke="black" points="922,-24 922,-49 979,-49 979,-24 922,-24"/>
<text text-anchor="start" x="936.5" y="-32.8" font-family="Times,serif" font-size="14.00" fill="#000000">input</text>
<polygon fill="none" stroke="black" points="979,-24 979,-49 996,-49 996,-24 979,-24"/>
<text text-anchor="start" x="984" y="-32.8" font-family="Times,serif" font-size="14.00">4</text>
<polygon fill="none" stroke="black" points="922,1 922,-24 979,-24 979,1 922,1"/>
<text text-anchor="start" x="929" y="-7.8" font-family="Times,serif" font-size="14.00" fill="#ff0000">inferred</text>
<polygon fill="none" stroke="black" points="979,1 979,-24 996,-24 996,1 979,1"/>
<text text-anchor="start" x="984" y="-7.8" font-family="Times,serif" font-size="14.00">2</text>
</g>
</g>
</svg>
