<?xml version="1.0" encoding="UTF-8" standalone="no"?>
<!DOCTYPE svg PUBLIC "-//W3C//DTD SVG 1.1//EN"
 "http://www.w3.org/Graphics/SVG/1.1/DTD/svg11.dtd">
<!-- Generated by graphviz version 2.36.0 (20140111.2315)
 -->
<!-- Title: %3 Pages: 1 -->
<svg width="706pt" height="279pt"
 viewBox="0.00 0.00 706.00 279.00" xmlns="http://www.w3.org/2000/svg" xmlns:xlink="http://www.w3.org/1999/xlink">
<g id="graph0" class="graph" transform="scale(1 1) rotate(0) translate(4 275)">
<title>%3</title>
<polygon fill="white" stroke="none" points="-4,4 -4,-275 702,-275 702,4 -4,4"/>
<!-- 1997.Amauris_damocles\n1995.Amauris_damocles_subsp_damocles -->
<g id="node1" class="node"><title>1997.Amauris_damocles\n1995.Amauris_damocles_subsp_damocles</title>
<path fill="#eeeeee" stroke="black" d="M532.5,-271C532.5,-271 307.5,-271 307.5,-271 301.5,-271 295.5,-265 295.5,-259 295.5,-259 295.5,-245 295.5,-245 295.5,-239 301.5,-233 307.5,-233 307.5,-233 532.5,-233 532.5,-233 538.5,-233 544.5,-239 544.5,-245 544.5,-245 544.5,-259 544.5,-259 544.5,-265 538.5,-271 532.5,-271"/>
<text text-anchor="middle" x="420" y="-255.8" font-family="Times,serif" font-size="14.00">1997.Amauris_damocles</text>
<text text-anchor="middle" x="420" y="-240.8" font-family="Times,serif" font-size="14.00">1995.Amauris_damocles_subsp_damocles</text>
</g>
<!-- 1995.Amauris_damocles -->
<g id="node3" class="node"><title>1995.Amauris_damocles</title>
<polygon fill="#ffffcc" stroke="black" points="215.769,-189.544 215.769,-204.456 152.639,-215 63.3607,-215 0.231124,-204.456 0.231124,-189.544 63.3607,-179 152.639,-179 215.769,-189.544"/>
<text text-anchor="middle" x="108" y="-193.3" font-family="Times,serif" font-size="14.00">1995.Amauris_damocles</text>
</g>
<!-- 1997.Amauris_damocles\n1995.Amauris_damocles_subsp_damocles&#45;&gt;1995.Amauris_damocles -->
<g id="edge2" class="edge"><title>1997.Amauris_damocles\n1995.Amauris_damocles_subsp_damocles&#45;&gt;1995.Amauris_damocles</title>
<path fill="none" stroke="#000000" d="M303.507,-232.953C286.232,-230.012 268.641,-226.966 252,-224 231.693,-220.381 209.795,-216.324 189.386,-212.477"/>
<polygon fill="#000000" stroke="#000000" points="189.976,-209.027 179.5,-210.608 188.676,-215.905 189.976,-209.027"/>
</g>
<!-- 1997.Amauris_hyalites_subsp_makuyensis\n1995.Amauris_damocles_subsp_makuyensis -->
<g id="node2" class="node"><title>1997.Amauris_hyalites_subsp_makuyensis\n1995.Amauris_damocles_subsp_makuyensis</title>
<path fill="#eeeeee" stroke="black" d="M539,-161C539,-161 301,-161 301,-161 295,-161 289,-155 289,-149 289,-149 289,-135 289,-135 289,-129 295,-123 301,-123 301,-123 539,-123 539,-123 545,-123 551,-129 551,-135 551,-135 551,-149 551,-149 551,-155 545,-161 539,-161"/>
<text text-anchor="middle" x="420" y="-145.8" font-family="Times,serif" font-size="14.00">1997.Amauris_hyalites_subsp_makuyensis</text>
<text text-anchor="middle" x="420" y="-130.8" font-family="Times,serif" font-size="14.00">1995.Amauris_damocles_subsp_makuyensis</text>
</g>
<!-- 1997.Amauris_hyalites_subsp_makuyensis\n1995.Amauris_damocles_subsp_makuyensis&#45;&gt;1995.Amauris_damocles -->
<g id="edge5" class="edge"><title>1997.Amauris_hyalites_subsp_makuyensis\n1995.Amauris_damocles_subsp_makuyensis&#45;&gt;1995.Amauris_damocles</title>
<path fill="none" stroke="#000000" d="M303.507,-161.047C286.232,-163.988 268.641,-167.034 252,-170 231.693,-173.619 209.795,-177.676 189.386,-181.523"/>
<polygon fill="#000000" stroke="#000000" points="188.676,-178.095 179.5,-183.392 189.976,-184.973 188.676,-178.095"/>
</g>
<!-- 1997.Amauris_hyalites -->
<g id="node5" class="node"><title>1997.Amauris_hyalites</title>
<polygon fill="#ccffcc" stroke="black" points="179.5,-133 36.5,-133 36.5,-97 179.5,-97 179.5,-133"/>
<text text-anchor="middle" x="108" y="-111.3" font-family="Times,serif" font-size="14.00">1997.Amauris_hyalites</text>
</g>
<!-- 1997.Amauris_hyalites_subsp_makuyensis\n1995.Amauris_damocles_subsp_makuyensis&#45;&gt;1997.Amauris_hyalites -->
<g id="edge6" class="edge"><title>1997.Amauris_hyalites_subsp_makuyensis\n1995.Amauris_damocles_subsp_makuyensis&#45;&gt;1997.Amauris_hyalites</title>
<path fill="none" stroke="#000000" d="M288.88,-130.667C255.236,-127.737 219.987,-124.667 189.697,-122.028"/>
<polygon fill="#000000" stroke="#000000" points="189.89,-118.532 179.624,-121.151 189.283,-125.506 189.89,-118.532"/>
</g>
<!-- 1995.Amauris_damocles&#45;&gt;1997.Amauris_hyalites -->
<g id="edge1" class="edge"><title>1995.Amauris_damocles&#45;&gt;1997.Amauris_hyalites</title>
<path fill="none" stroke="#0000ff" stroke-dasharray="1,5" d="M108,-178.575C108,-163.469 108,-148.363 108,-133.258"/>
</g>
<!-- 1995.Amauris_damocles_subsp_hyalites -->
<g id="node4" class="node"><title>1995.Amauris_damocles_subsp_hyalites</title>
<polygon fill="#ffffcc" stroke="black" points="588.27,-189.544 588.27,-204.456 489.7,-215 350.3,-215 251.73,-204.456 251.73,-189.544 350.3,-179 489.7,-179 588.27,-189.544"/>
<text text-anchor="middle" x="420" y="-193.3" font-family="Times,serif" font-size="14.00">1995.Amauris_damocles_subsp_hyalites</text>
</g>
<!-- 1995.Amauris_damocles_subsp_hyalites&#45;&gt;1995.Amauris_damocles -->
<g id="edge4" class="edge"><title>1995.Amauris_damocles_subsp_hyalites&#45;&gt;1995.Amauris_damocles</title>
<path fill="none" stroke="#000000" d="M251.751,-197C243.11,-197 234.52,-197 226.09,-197"/>
<polygon fill="#000000" stroke="#000000" points="225.894,-193.5 215.894,-197 225.894,-200.5 225.894,-193.5"/>
</g>
<!-- 1997.Amauris_hyalites_subsp_hyalites -->
<g id="node6" class="node"><title>1997.Amauris_hyalites_subsp_hyalites</title>
<polygon fill="#ccffcc" stroke="black" points="535,-105 305,-105 305,-69 535,-69 535,-105"/>
<text text-anchor="middle" x="420" y="-83.3" font-family="Times,serif" font-size="14.00">1997.Amauris_hyalites_subsp_hyalites</text>
</g>
<!-- 1997.Amauris_hyalites_subsp_hyalites&#45;&gt;1997.Amauris_hyalites -->
<g id="edge3" class="edge"><title>1997.Amauris_hyalites_subsp_hyalites&#45;&gt;1997.Amauris_hyalites</title>
<path fill="none" stroke="#000000" d="M304.888,-97.3069C266.706,-100.756 224.959,-104.526 189.851,-107.697"/>
<polygon fill="#000000" stroke="#000000" points="189.303,-104.233 179.658,-108.618 189.932,-111.204 189.303,-104.233"/>
</g>
<!-- Legend -->
<g id="node7" class="node"><title>Legend</title>
<polygon fill="white" stroke="black" points="698,-175 624,-175 624,1 698,1 698,-175"/>
<polygon fill="none" stroke="black" points="624,-149 624,-175 698,-175 698,-149 624,-149"/>
<text text-anchor="start" x="636.5" y="-158.3" font-family="Arial Black" font-size="14.00"> Nodes</text>
<polygon fill="#eeeeee" stroke="none" points="624,-124 624,-149 681,-149 681,-124 624,-124"/>
<polygon fill="none" stroke="black" points="624,-124 624,-149 681,-149 681,-124 624,-124"/>
<text text-anchor="start" x="637" y="-132.8" font-family="Times,serif" font-size="14.00">comb</text>
<polygon fill="none" stroke="black" points="681,-124 681,-149 698,-149 698,-124 681,-124"/>
<text text-anchor="start" x="686" y="-132.8" font-family="Times,serif" font-size="14.00">2</text>
<polygon fill="#ffffcc" stroke="none" points="624,-99 624,-124 681,-124 681,-99 624,-99"/>
<polygon fill="none" stroke="black" points="624,-99 624,-124 681,-124 681,-99 624,-99"/>
<text text-anchor="start" x="638.5" y="-107.8" font-family="Times,serif" font-size="14.00">1995</text>
<polygon fill="none" stroke="black" points="681,-99 681,-124 698,-124 698,-99 681,-99"/>
<text text-anchor="start" x="686" y="-107.8" font-family="Times,serif" font-size="14.00">2</text>
<polygon fill="#ccffcc" stroke="none" points="624,-74 624,-99 681,-99 681,-74 624,-74"/>
<polygon fill="none" stroke="black" points="624,-74 624,-99 681,-99 681,-74 624,-74"/>
<text text-anchor="start" x="638.5" y="-82.8" font-family="Times,serif" font-size="14.00">1997</text>
<polygon fill="none" stroke="black" points="681,-74 681,-99 698,-99 698,-74 681,-74"/>
<text text-anchor="start" x="686" y="-82.8" font-family="Times,serif" font-size="14.00">2</text>
<polygon fill="none" stroke="black" points="624,-49 624,-74 698,-74 698,-49 624,-49"/>
<text text-anchor="start" x="635" y="-57.8" font-family="Arial Black" font-size="14.00"> Edges </text>
<polygon fill="none" stroke="black" points="624,-24 624,-49 681,-49 681,-24 624,-24"/>
<text text-anchor="start" x="629.5" y="-32.8" font-family="Times,serif" font-size="14.00" fill="#0000ff">overlaps</text>
<polygon fill="none" stroke="black" points="681,-24 681,-49 698,-49 698,-24 681,-24"/>
<text text-anchor="start" x="686" y="-32.8" font-family="Times,serif" font-size="14.00">1</text>
<polygon fill="none" stroke="black" points="624,1 624,-24 681,-24 681,1 624,1"/>
<text text-anchor="start" x="638.5" y="-7.8" font-family="Times,serif" font-size="14.00" fill="#000000">input</text>
<polygon fill="none" stroke="black" points="681,1 681,-24 698,-24 698,1 681,1"/>
<text text-anchor="start" x="686" y="-7.8" font-family="Times,serif" font-size="14.00">5</text>
</g>
</g>
</svg>
