<?xml version="1.0" encoding="UTF-8" standalone="no"?>
<!DOCTYPE svg PUBLIC "-//W3C//DTD SVG 1.1//EN"
 "http://www.w3.org/Graphics/SVG/1.1/DTD/svg11.dtd">
<!-- Generated by graphviz version 2.36.0 (20140111.2315)
 -->
<!-- Title: %3 Pages: 1 -->
<svg width="436pt" height="182pt"
 viewBox="0.00 0.00 436.00 182.00" xmlns="http://www.w3.org/2000/svg" xmlns:xlink="http://www.w3.org/1999/xlink">
<g id="graph0" class="graph" transform="scale(1 1) rotate(0) translate(4 178)">
<title>%3</title>
<polygon fill="white" stroke="none" points="-4,4 -4,-178 432,-178 432,4 -4,4"/>
<!-- 1.A -->
<g id="node1" class="node"><title>1.A</title>
<polygon fill="#ccffcc" stroke="black" points="136,-105 82,-105 82,-69 136,-69 136,-105"/>
<text text-anchor="middle" x="109" y="-83.3" font-family="Helvetica,sans-Serif" font-size="14.00">1.A</text>
</g>
<!-- 1.B -->
<g id="node2" class="node"><title>1.B</title>
<polygon fill="#ccffcc" stroke="black" points="228,-151 174,-151 174,-115 228,-115 228,-151"/>
<text text-anchor="middle" x="201" y="-129.3" font-family="Helvetica,sans-Serif" font-size="14.00">1.B</text>
</g>
<!-- 1.A&#45;&gt;1.B -->
<g id="edge1" class="edge"><title>1.A&#45;&gt;1.B</title>
<path fill="none" stroke="#000000" d="M144.948,-104.863C154.516,-109.753 164.722,-114.969 173.715,-119.565"/>
<polygon fill="#000000" stroke="#000000" points="146.529,-101.74 136.032,-100.305 143.343,-107.973 146.529,-101.74"/>
</g>
<!-- 1.C -->
<g id="node3" class="node"><title>1.C</title>
<polygon fill="#ccffcc" stroke="black" points="228,-105 174,-105 174,-69 228,-69 228,-105"/>
<text text-anchor="middle" x="201" y="-83.3" font-family="Helvetica,sans-Serif" font-size="14.00">1.C</text>
</g>
<!-- 1.A&#45;&gt;1.C -->
<g id="edge2" class="edge"><title>1.A&#45;&gt;1.C</title>
<path fill="none" stroke="#000000" d="M146.135,-87C155.356,-87 165.093,-87 173.715,-87"/>
<polygon fill="#000000" stroke="#000000" points="146.032,-83.5001 136.032,-87 146.032,-90.5001 146.032,-83.5001"/>
</g>
<!-- 2.A -->
<g id="node5" class="node"><title>2.A</title>
<polygon fill="#ffffcc" stroke="black" points="428,-79.5442 428,-94.4558 412.184,-105 389.816,-105 374,-94.4558 374,-79.5442 389.816,-69 412.184,-69 428,-79.5442"/>
<text text-anchor="middle" x="401" y="-83.3" font-family="Helvetica,sans-Serif" font-size="14.00">2.A</text>
</g>
<!-- 1.A&#45;&gt;2.A -->
<g id="edge5" class="edge"><title>1.A&#45;&gt;2.A</title>
<path fill="none" stroke="#aa00ff" stroke-dasharray="5,2" d="M136.019,-73.2377C147.353,-67.9853 160.998,-62.6304 174,-60 244.57,-45.7233 265.43,-45.7233 336,-60 351.13,-63.0608 367.13,-69.8108 379.347,-75.7956"/>
<text text-anchor="middle" x="255" y="-53.8" font-family="Times,serif" font-size="14.00">==</text>
</g>
<!-- 2.B -->
<g id="node4" class="node"><title>2.B</title>
<polygon fill="#ffffcc" stroke="black" points="336,-125.544 336,-140.456 320.184,-151 297.816,-151 282,-140.456 282,-125.544 297.816,-115 320.184,-115 336,-125.544"/>
<text text-anchor="middle" x="309" y="-129.3" font-family="Helvetica,sans-Serif" font-size="14.00">2.B</text>
</g>
<!-- 1.B&#45;&gt;2.B -->
<g id="edge6" class="edge"><title>1.B&#45;&gt;2.B</title>
<path fill="none" stroke="#aa00ff" stroke-dasharray="5,2" d="M228.202,-133C244.51,-133 265.412,-133 281.732,-133"/>
<text text-anchor="middle" x="255" y="-136.8" font-family="Times,serif" font-size="14.00">==</text>
</g>
<!-- 2.F -->
<g id="node6" class="node"><title>2.F</title>
<polygon fill="#ffffcc" stroke="black" points="336,-79.5442 336,-94.4558 320.184,-105 297.816,-105 282,-94.4558 282,-79.5442 297.816,-69 320.184,-69 336,-79.5442"/>
<text text-anchor="middle" x="309" y="-83.3" font-family="Helvetica,sans-Serif" font-size="14.00">2.F</text>
</g>
<!-- 1.C&#45;&gt;2.F -->
<g id="edge7" class="edge"><title>1.C&#45;&gt;2.F</title>
<path fill="none" stroke="#aa00ff" stroke-dasharray="5,2" d="M228.202,-87C244.51,-87 265.412,-87 281.732,-87"/>
<text text-anchor="middle" x="255" y="-90.8" font-family="Times,serif" font-size="14.00">==</text>
</g>
<!-- 2.B&#45;&gt;2.A -->
<g id="edge3" class="edge"><title>2.B&#45;&gt;2.A</title>
<path fill="none" stroke="#000000" d="M331.329,-122.099C342.761,-116.255 357.043,-108.956 369.617,-102.529"/>
<polygon fill="#000000" stroke="#000000" points="371.513,-105.491 378.824,-97.8231 368.327,-99.2577 371.513,-105.491"/>
</g>
<!-- 2.F&#45;&gt;2.A -->
<g id="edge4" class="edge"><title>2.F&#45;&gt;2.A</title>
<path fill="none" stroke="#000000" d="M336.032,-87C344.632,-87 354.363,-87 363.593,-87"/>
<polygon fill="#000000" stroke="#000000" points="363.715,-90.5001 373.715,-87 363.715,-83.5001 363.715,-90.5001"/>
</g>
<!-- Legend -->
<g id="node7" class="node"><title>Legend</title>
<polygon fill="white" stroke="black" points="63.5,-175 0.5,-175 0.5,1 63.5,1 63.5,-175"/>
<polygon fill="none" stroke="black" points="1,-149 1,-175 64,-175 64,-149 1,-149"/>
<text text-anchor="start" x="8" y="-158.3" font-family="Arial Black" font-size="14.00"> Nodes</text>
<polygon fill="#ccffcc" stroke="none" points="1,-124 1,-149 45,-149 45,-124 1,-124"/>
<polygon fill="none" stroke="black" points="1,-124 1,-149 45,-149 45,-124 1,-124"/>
<text text-anchor="start" x="19" y="-132.8" font-family="Helvetica,sans-Serif" font-size="14.00">1</text>
<polygon fill="none" stroke="black" points="45,-124 45,-149 64,-149 64,-124 45,-124"/>
<text text-anchor="start" x="50.5" y="-132.8" font-family="Helvetica,sans-Serif" font-size="14.00">3</text>
<polygon fill="#ffffcc" stroke="none" points="1,-99 1,-124 45,-124 45,-99 1,-99"/>
<polygon fill="none" stroke="black" points="1,-99 1,-124 45,-124 45,-99 1,-99"/>
<text text-anchor="start" x="19" y="-107.8" font-family="Helvetica,sans-Serif" font-size="14.00">2</text>
<polygon fill="none" stroke="black" points="45,-99 45,-124 64,-124 64,-99 45,-99"/>
<text text-anchor="start" x="50.5" y="-107.8" font-family="Helvetica,sans-Serif" font-size="14.00">3</text>
<polygon fill="none" stroke="black" points="1,-74 1,-99 64,-99 64,-74 1,-74"/>
<text text-anchor="start" x="6.5" y="-82.8" font-family="Arial Black" font-size="14.00"> Edges </text>
<polygon fill="none" stroke="black" points="1,-49 1,-74 45,-74 45,-49 1,-49"/>
<text text-anchor="start" x="6.5" y="-57.8" font-family="Helvetica,sans-Serif" font-size="14.00" fill="#000000">isa_1</text>
<polygon fill="none" stroke="black" points="45,-49 45,-74 64,-74 64,-49 45,-49"/>
<text text-anchor="start" x="50.5" y="-57.8" font-family="Helvetica,sans-Serif" font-size="14.00">2</text>
<polygon fill="none" stroke="black" points="1,-24 1,-49 45,-49 45,-24 1,-24"/>
<text text-anchor="start" x="6.5" y="-32.8" font-family="Helvetica,sans-Serif" font-size="14.00" fill="#000000">isa_2</text>
<polygon fill="none" stroke="black" points="45,-24 45,-49 64,-49 64,-24 45,-24"/>
<text text-anchor="start" x="50.5" y="-32.8" font-family="Helvetica,sans-Serif" font-size="14.00">2</text>
<polygon fill="none" stroke="black" points="1,1 1,-24 45,-24 45,1 1,1"/>
<text text-anchor="start" x="12" y="-7.8" font-family="Helvetica,sans-Serif" font-size="14.00" fill="#aa00ff">Art.</text>
<polygon fill="none" stroke="black" points="45,1 45,-24 64,-24 64,1 45,1"/>
<text text-anchor="start" x="50.5" y="-7.8" font-family="Helvetica,sans-Serif" font-size="14.00">3</text>
</g>
</g>
</svg>
